template.ufo
<glyph name="arGaf.isol" format="1">
  <advance width="1231" height="1368"/>
  <unicode hex="06AF"/>
  <outline>
    <contour>
      <point x="938" y="259" type="curve"/>
      <point x="849" y="215"/>
      <point x="678" y="187"/>
      <point x="523" y="187" type="curve"/>
      <point x="323" y="188"/>
      <point x="185" y="254"/>
      <point x="185" y="414" type="curve" smooth="yes"/>
      <point x="185" y="450"/>
      <point x="190" y="482"/>
      <point x="198" y="513" type="curve"/>
      <point x="142" y="528" type="line"/>
      <point x="114" y="446"/>
      <point x="100" y="369"/>
      <point x="100" y="297" type="curve" smooth="yes"/>
      <point x="100" y="141"/>
      <point x="176" y="-13"/>
      <point x="496" y="-13" type="curve" smooth="yes"/>
      <point x="664" y="-13"/>
      <point x="854" y="26"/>
      <point x="953" y="80" type="curve"/>
      <point x="1021" y="163"/>
      <point x="1040" y="253"/>
      <point x="1040" y="312" type="curve" smooth="yes"/>
      <point x="1040" y="412"/>
      <point x="971" y="504"/>
      <point x="851" y="588" type="curve"/>
      <point x="885" y="662" type="line"/>
      <point x="814" y="668"/>
      <point x="743" y="676"/>
      <point x="677" y="687" type="curve"/>
      <point x="677" y="690" type="line"/>
      <point x="836" y="757"/>
      <point x="984" y="809"/>
      <point x="1119" y="847" type="curve"/>
      <point x="1153" y="903"/>
      <point x="1183" y="959"/>
      <point x="1211" y="1017" type="curve"/>
      <point x="1207" y="1022" type="line"/>
      <point x="1027" y="967"/>
      <point x="862" y="909"/>
      <point x="715" y="849" type="curve" smooth="yes"/>
      <point x="620" y="810"/>
      <point x="582" y="754"/>
      <point x="582" y="683" type="curve" smooth="yes"/>
      <point x="582" y="650"/>
      <point x="588" y="608"/>
      <point x="604" y="554" type="curve"/>
      <point x="789" y="463"/>
      <point x="938" y="323"/>
    </contour>
    <contour>
      <point x="1175" y="1153" type="line"/>
      <point x="1173" y="1156" type="line"/>
      <point x="1007" y="1108"/>
      <point x="835" y="1050"/>
      <point x="653" y="966" type="curve"/>
      <point x="639" y="939"/>
      <point x="627" y="910"/>
      <point x="619" y="881" type="curve"/>
      <point x="624" y="876" type="line"/>
      <point x="759" y="944"/>
      <point x="934" y="1010"/>
      <point x="1135" y="1073" type="curve"/>
    </contour>
    <contour>
      <point x="345.6" y="775.309" type="move" name="markAbove"/>
    </contour>
    <contour>
      <point x="901.12" y="1019.36" type="move" name="gafAbove"/>
    </contour>
    <contour>
      <point x="330.24" y="-93.384" type="move" name="markBelow"/>
    </contour>
    <contour>
      <point x="843.852" y="1206.26" type="move" name="dotAbove"/>
    </contour>
    <contour>
      <point x="537.763" y="-241.585" type="move" name="dotBelow"/>
    </contour>
  </outline>
</glyph>
<glyph name="arGaf.medi" format="1">
  <advance width="770" height="1368"/>
  <unicode hex="FB95"/>
  <outline>
    <contour>
      <point x="770" y="200" type="line"/>
      <point x="756" y="200" type="line" smooth="yes"/>
      <point x="677" y="200"/>
      <point x="633" y="225"/>
      <point x="583" y="273" type="curve" smooth="yes"/>
      <point x="473" y="377"/>
      <point x="367" y="472"/>
      <point x="255" y="552" type="curve"/>
      <point x="293" y="629" type="line"/>
      <point x="217" y="645"/>
      <point x="153" y="660"/>
      <point x="99" y="676" type="curve"/>
      <point x="99" y="680" type="line"/>
      <point x="257" y="750"/>
      <point x="422" y="808"/>
      <point x="593" y="857" type="curve"/>
      <point x="622" y="909"/>
      <point x="650" y="962"/>
      <point x="676" y="1017" type="curve"/>
      <point x="670" y="1023" type="line"/>
      <point x="401" y="943"/>
      <point x="175" y="863"/>
      <point x="47" y="783" type="curve"/>
      <point x="18" y="759"/>
      <point x="-1" y="718"/>
      <point x="-1" y="668" type="curve" smooth="yes"/>
      <point x="-1" y="616"/>
      <point x="5" y="581"/>
      <point x="12" y="548" type="curve"/>
      <point x="194" y="423"/>
      <point x="295" y="304"/>
      <point x="295" y="259" type="curve" smooth="yes"/>
      <point x="295" y="226"/>
      <point x="175" y="200"/>
      <point x="14" y="200" type="curve" smooth="yes"/>
      <point x="0" y="200" type="line" smooth="yes"/>
      <point x="-48" y="200"/>
      <point x="-70" y="148"/>
      <point x="-70" y="100" type="curve" smooth="yes"/>
      <point x="-70" y="52"/>
      <point x="-48" y="0"/>
      <point x="0" y="0" type="curve" smooth="yes"/>
      <point x="14" y="0" type="line" smooth="yes"/>
      <point x="227" y="0"/>
      <point x="348" y="30"/>
      <point x="394" y="251" type="curve"/>
      <point x="398" y="251" type="line"/>
      <point x="531" y="104"/>
      <point x="548" y="0"/>
      <point x="756" y="0" type="curve" smooth="yes"/>
      <point x="770" y="0" type="line"/>
    </contour>
    <contour>
      <point x="624" y="1147" type="line"/>
      <point x="619" y="1153" type="line"/>
      <point x="419" y="1094"/>
      <point x="233" y="1029"/>
      <point x="73" y="954" type="curve"/>
      <point x="61" y="926"/>
      <point x="52" y="900"/>
      <point x="46" y="874" type="curve"/>
      <point x="51" y="869" type="line"/>
      <point x="207" y="944"/>
      <point x="382" y="1007"/>
      <point x="576" y="1067" type="curve"/>
    </contour>
    <contour>
      <point x="365.227" y="1026.19" type="move" name="gafAbove"/>
    </contour>
    <contour>
      <point x="293" y="1230.56" type="move" name="markAbove"/>
    </contour>
    <contour>
      <point x="252.587" y="-112.157" type="move" name="markBelow"/>
    </contour>
    <contour>
      <point x="295" y="1153" type="move" name="dotAbove"/>
    </contour>
    <contour>
      <point x="293.547" y="-146.291" type="move" name="dotBelow"/>
    </contour>
  </outline>
</glyph>
<glyph name="arAlefShort.fina" format="1">
  <advance width="418"/>
  <outline>
    <contour>
      <point x="418" y="200" type="line"/>
      <point x="404" y="200" type="line" smooth="yes"/>
      <point x="313" y="200"/>
      <point x="273" y="234"/>
      <point x="273" y="334" type="curve" smooth="yes"/>
      <point x="273" y="416"/>
      <point x="275" y="469"/>
      <point x="275" y="574" type="curve" smooth="yes"/>
      <point x="275" y="714"/>
      <point x="273" y="878"/>
      <point x="257" y="1022" type="curve"/>
      <point x="243" y="1029" type="line"/>
      <point x="204" y="995"/>
      <point x="165" y="958"/>
      <point x="128" y="918" type="curve"/>
      <point x="154" y="672"/>
      <point x="163" y="378"/>
      <point x="164" y="264" type="curve" smooth="yes"/>
      <point x="167" y="69"/>
      <point x="265" y="0"/>
      <point x="401" y="0" type="curve" smooth="yes"/>
      <point x="418" y="0" type="line"/>
    </contour>
    <contour>
      <point x="95.5733" y="1051.79" type="move" name="hamzaAbove"/>
    </contour>
    <contour>
      <point x="203.093" y="1036.43" type="move" name="markAbove"/>
    </contour>
    <contour>
      <point x="254.293" y="-88.264" type="move" name="hamzaBelow"/>
    </contour>
    <contour>
      <point x="254.293" y="-32" type="move" name="markBelow"/>
    </contour>
    <contour>
      <point x="296.96" y="-226.504" type="move" name="dotBelow"/>
    </contour>
    <contour>
      <point x="199.68" y="1121.76" type="move" name="dotAbove"/>
    </contour>
  </outline>
</glyph>
<glyph name="arAlef.fina" format="1">
  <advance width="368"/>
  <outline>
    <contour>
      <point x="368" y="200" type="line"/>
      <point x="354" y="200" type="line" smooth="yes"/>
      <point x="263" y="200"/>
      <point x="223" y="234"/>
      <point x="223" y="334" type="curve" smooth="yes"/>
      <point x="223" y="416"/>
      <point x="225" y="469"/>
      <point x="225" y="574" type="curve" smooth="yes"/>
      <point x="225" y="714"/>
      <point x="223" y="878"/>
      <point x="207" y="1022" type="curve"/>
      <point x="193" y="1029" type="line"/>
      <point x="154" y="995"/>
      <point x="115" y="958"/>
      <point x="78" y="918" type="curve"/>
      <point x="104" y="672"/>
      <point x="113" y="378"/>
      <point x="114" y="264" type="curve" smooth="yes"/>
      <point x="117" y="69"/>
      <point x="215" y="0"/>
      <point x="351" y="0" type="curve" smooth="yes"/>
      <point x="368" y="0" type="line"/>
    </contour>
    <contour>
      <point x="60" y="1058.62" type="move" name="hamzaAbove"/>
    </contour>
    <contour>
      <point x="134" y="1097.87" type="move" name="markAbove"/>
    </contour>
    <contour>
      <point x="203.093" y="-101.917" type="move" name="hamzaBelow"/>
    </contour>
    <contour>
      <point x="203.093" y="-52" type="move" name="markBelow"/>
    </contour>
    <contour>
      <point x="134" y="1145.66" type="move" name="dotAbove"/>
    </contour>
    <contour>
      <point x="225" y="-100.211" type="move" name="dotBelow"/>
    </contour>
  </outline>
</glyph>
<glyph name="arAlef.isol" format="1">
  <advance width="318"/>
  <outline>
    <contour>
      <point x="121" y="-28" type="line"/>
      <point x="155" y="12"/>
      <point x="182" y="51"/>
      <point x="203" y="89" type="curve"/>
      <point x="225" y="123"/>
      <point x="234" y="228"/>
      <point x="234" y="385" type="curve" smooth="yes"/>
      <point x="234" y="579"/>
      <point x="231" y="781"/>
      <point x="211" y="997" type="curve"/>
      <point x="194" y="1006" type="line"/>
      <point x="156" y="969"/>
      <point x="118" y="927"/>
      <point x="78" y="879" type="curve"/>
      <point x="102" y="660"/>
      <point x="112" y="445"/>
      <point x="112" y="229" type="curve" smooth="yes"/>
      <point x="112" y="133"/>
      <point x="109" y="59"/>
      <point x="99" y="-12" type="curve"/>
    </contour>
    <contour>
      <point x="60" y="1044.96" type="move" name="hamzaAbove"/>
    </contour>
    <contour>
      <point x="145" y="1073.98" type="move" name="markAbove"/>
    </contour>
    <contour>
      <point x="156" y="-74.6107" type="move" name="hamzaBelow"/>
    </contour>
    <contour>
      <point x="143.36" y="-45.5973" type="move" name="markBelow"/>
    </contour>
    <contour>
      <point x="119.467" y="1104.7" type="move" name="dotAbove"/>
    </contour>
    <contour>
      <point x="133.12" y="-112.157" type="move" name="dotBelow"/>
    </contour>
  </outline>
</glyph>
<glyph name="arBeh.isol" format="1">
  <advance width="1302"/>
  <outline>
    <contour>
      <point x="1105" y="606" type="line"/>
      <point x="1071" y="559"/>
      <point x="1038" y="504"/>
      <point x="1008" y="450" type="curve"/>
      <point x="1055" y="365"/>
      <point x="1089" y="295"/>
      <point x="1107" y="244" type="curve"/>
      <point x="1047" y="213"/>
      <point x="816" y="165"/>
      <point x="644" y="165" type="curve" smooth="yes"/>
      <point x="325" y="165"/>
      <point x="198" y="289"/>
      <point x="198" y="441" type="curve" smooth="yes"/>
      <point x="198" y="477"/>
      <point x="207" y="517"/>
      <point x="221" y="561" type="curve"/>
      <point x="160" y="582" type="line"/>
      <point x="118" y="490"/>
      <point x="100" y="402"/>
      <point x="100" y="317" type="curve" smooth="yes"/>
      <point x="100" y="187"/>
      <point x="155" y="98"/>
      <point x="244" y="40" type="curve" smooth="yes"/>
      <point x="321" y="-9"/>
      <point x="429" y="-43"/>
      <point x="596" y="-43" type="curve" smooth="yes"/>
      <point x="784" y="-43"/>
      <point x="999" y="3"/>
      <point x="1139" y="80" type="curve"/>
      <point x="1189" y="142"/>
      <point x="1222" y="260"/>
      <point x="1222" y="327" type="curve" smooth="yes"/>
      <point x="1222" y="381"/>
      <point x="1181" y="498"/>
      <point x="1116" y="607" type="curve"/>
    </contour>
    <contour>
      <point x="616.241" y="638" type="move" name="markAbove"/>
    </contour>
    <contour>
      <point x="644" y="649.016" type="move" name="dotAbove"/>
    </contour>
    <contour>
      <point x="627.796" y="-179.399" type="move" name="dotBelow"/>
    </contour>
    <contour>
      <point x="591.66" y="-199.45" type="move" name="markBelow"/>
    </contour>
    <contour>
      <point x="596.576" y="567.459" type="move" name="hamzaAbove"/>
    </contour>
  </outline>
</glyph>
<glyph name="arDal.isol" format="1">
  <advance width="691"/>
  <outline>
    <contour>
      <point x="98" y="313" type="line"/>
      <point x="93" y="269"/>
      <point x="92" y="232"/>
      <point x="92" y="204" type="curve" smooth="yes"/>
      <point x="92" y="54"/>
      <point x="167" y="-13"/>
      <point x="290" y="-13" type="curve" smooth="yes"/>
      <point x="399" y="-13"/>
      <point x="491" y="24"/>
      <point x="570" y="86" type="curve"/>
      <point x="602" y="143"/>
      <point x="620" y="208"/>
      <point x="620" y="274" type="curve" smooth="yes"/>
      <point x="620" y="367"/>
      <point x="589" y="451"/>
      <point x="528" y="524" type="curve" smooth="yes"/>
      <point x="453" y="615"/>
      <point x="366" y="682"/>
      <point x="276" y="739" type="curve"/>
      <point x="269" y="739" type="line"/>
      <point x="232" y="674"/>
      <point x="205" y="618"/>
      <point x="205" y="585" type="curve" smooth="yes"/>
      <point x="205" y="562"/>
      <point x="226" y="545"/>
      <point x="260" y="526" type="curve" smooth="yes"/>
      <point x="399" y="449"/>
      <point x="494" y="356"/>
      <point x="524" y="242" type="curve"/>
      <point x="442" y="200"/>
      <point x="370" y="186"/>
      <point x="307" y="186" type="curve" smooth="yes"/>
      <point x="212" y="186"/>
      <point x="162" y="220"/>
      <point x="162" y="313" type="curve"/>
    </contour>
    <contour>
      <point x="278.549" y="903.78" type="move" name="dotAbove"/>
    </contour>
    <contour>
      <point x="288.707" y="957.424" type="move" name="markAbove"/>
    </contour>
    <contour>
      <point x="303.12" y="-176.412" type="move" name="markBelow"/>
    </contour>
    <contour>
      <point x="317.44" y="-178.376" type="move" name="dotBelow"/>
    </contour>
    <contour>
      <point x="194.56" y="870.883" type="move" name="hamzaAbove"/>
    </contour>
  </outline>
</glyph>
<glyph name="arFeh.init" format="1">
  <advance width="582"/>
  <outline>
    <contour>
      <point x="0" y="200" type="line" smooth="yes"/>
      <point x="-48" y="200"/>
      <point x="-70" y="148"/>
      <point x="-70" y="100" type="curve" smooth="yes"/>
      <point x="-70" y="52"/>
      <point x="-48" y="0"/>
      <point x="0" y="0" type="curve" smooth="yes"/>
      <point x="14" y="0" type="line" smooth="yes"/>
      <point x="340" y="0"/>
      <point x="502" y="16"/>
      <point x="502" y="276" type="curve" smooth="yes"/>
      <point x="502" y="506"/>
      <point x="411" y="751"/>
      <point x="275" y="751" type="curve" smooth="yes"/>
      <point x="218" y="751"/>
      <point x="164" y="718"/>
      <point x="116" y="666" type="curve" smooth="yes"/>
      <point x="65" y="611"/>
      <point x="37" y="542"/>
      <point x="37" y="464" type="curve" smooth="yes"/>
      <point x="37" y="333"/>
      <point x="130" y="273"/>
      <point x="300" y="273" type="curve" smooth="yes"/>
      <point x="337" y="273"/>
      <point x="374" y="274"/>
      <point x="409" y="278" type="curve"/>
      <point x="411" y="274"/>
      <point x="412" y="269"/>
      <point x="412" y="264" type="curve" smooth="yes"/>
      <point x="412" y="205"/>
      <point x="270" y="200"/>
      <point x="54" y="200" type="curve" smooth="yes"/>
    </contour>
    <contour>
      <point x="384" y="428" type="curve"/>
      <point x="227" y="432"/>
      <point x="122" y="471"/>
      <point x="122" y="527" type="curve" smooth="yes"/>
      <point x="122" y="557"/>
      <point x="162" y="594"/>
      <point x="230" y="594" type="curve" smooth="yes"/>
      <point x="296" y="594"/>
      <point x="347" y="533"/>
    </contour>
    <contour>
      <point x="233.213" y="890.686" type="move" name="dotAbove"/>
    </contour>
    <contour>
      <point x="222" y="1107.33" type="move" name="markAbove"/>
    </contour>
    <contour>
      <point x="208.531" y="-150.613" type="move" name="markBelow"/>
    </contour>
    <contour>
      <point x="227.939" y="-139.976" type="move" name="dotBelow"/>
    </contour>
  </outline>
</glyph>
<glyph name="arHah.medi" format="1">
  <advance width="902"/>
  <outline>
    <contour>
      <point x="520" y="331" type="line"/>
      <point x="362" y="231"/>
      <point x="226" y="200"/>
      <point x="14" y="200" type="curve" smooth="yes"/>
      <point x="0" y="200" type="line" smooth="yes"/>
      <point x="-48" y="200"/>
      <point x="-70" y="148"/>
      <point x="-70" y="100" type="curve" smooth="yes"/>
      <point x="-70" y="52"/>
      <point x="-48" y="0"/>
      <point x="0" y="0" type="curve" smooth="yes"/>
      <point x="14" y="0" type="line" smooth="yes"/>
      <point x="306" y="0"/>
      <point x="438" y="89"/>
      <point x="615" y="249" type="curve" smooth="yes"/>
      <point x="669" y="297"/>
      <point x="716" y="309"/>
      <point x="787" y="309" type="curve"/>
      <point x="822" y="360"/>
      <point x="849" y="407"/>
      <point x="870" y="448" type="curve"/>
      <point x="868" y="456" type="line"/>
      <point x="794" y="456" type="line" smooth="yes"/>
      <point x="711" y="456"/>
      <point x="644" y="467"/>
      <point x="547" y="503" type="curve" smooth="yes"/>
      <point x="431" y="547"/>
      <point x="338" y="572"/>
      <point x="270" y="572" type="curve" smooth="yes"/>
      <point x="166" y="572"/>
      <point x="76" y="517"/>
      <point x="52" y="393" type="curve"/>
      <point x="117" y="266" type="line"/>
      <point x="137" y="266" type="line"/>
      <point x="183" y="371" type="line"/>
      <point x="201" y="383"/>
      <point x="228" y="389"/>
      <point x="266" y="389" type="curve" smooth="yes"/>
      <point x="323" y="389"/>
      <point x="411" y="373"/>
      <point x="520" y="336" type="curve"/>
    </contour>
    <contour>
      <point x="654" y="241" type="line"/>
      <point x="652" y="221"/>
      <point x="652" y="202"/>
      <point x="652" y="182" type="curve" smooth="yes"/>
      <point x="652" y="119"/>
      <point x="671" y="75"/>
      <point x="705" y="41" type="curve"/>
      <point x="735" y="14"/>
      <point x="792" y="0"/>
      <point x="888" y="0" type="curve" smooth="yes"/>
      <point x="902" y="0" type="line"/>
      <point x="902" y="200" type="line"/>
      <point x="888" y="200" type="line" smooth="yes"/>
      <point x="801" y="200"/>
      <point x="721" y="205"/>
      <point x="714" y="280" type="curve"/>
      <point x="709" y="285" type="line"/>
    </contour>
    <contour>
      <point x="374.768" y="746.122" type="move" name="dotAbove"/>
    </contour>
    <contour>
      <point x="300.575" y="656.312" type="move" name="markAbove"/>
    </contour>
    <contour>
      <point x="384" y="-173.597" type="move" name="dotBelow"/>
    </contour>
    <contour>
      <point x="223.573" y="-187.251" type="move" name="markBelow"/>
    </contour>
    <contour>
      <point x="235.52" y="727.523" type="move" name="hamzaAbove"/>
    </contour>
  </outline>
</glyph>
<glyph name="arHehDo.fina" format="1">
  <advance width="836"/>
  <outline>
    <contour>
      <point x="653" y="200" type="line"/>
      <point x="664" y="233"/>
      <point x="671" y="265"/>
      <point x="671" y="298" type="curve" smooth="yes"/>
      <point x="671" y="386"/>
      <point x="623" y="482"/>
      <point x="563" y="580" type="curve" smooth="yes"/>
      <point x="503" y="679" type="line"/>
      <point x="487" y="679" type="line"/>
      <point x="412" y="560"/>
      <point x="356" y="399"/>
      <point x="311" y="177" type="curve"/>
      <point x="245" y="165"/>
      <point x="190" y="144"/>
      <point x="150" y="106" type="curve"/>
      <point x="106" y="59"/>
      <point x="77" y="-16"/>
      <point x="49" y="-93" type="curve"/>
      <point x="71" y="-114" type="line"/>
      <point x="102" y="-67"/>
      <point x="176" y="-35"/>
      <point x="285" y="-17" type="curve"/>
      <point x="294" y="-221"/>
      <point x="437" y="-330"/>
      <point x="557" y="-330" type="curve" smooth="yes"/>
      <point x="696" y="-330"/>
      <point x="769" y="-187"/>
      <point x="769" y="-96" type="curve" smooth="yes"/>
      <point x="769" y="-62"/>
      <point x="766" y="-29"/>
      <point x="753" y="5" type="curve"/>
      <point x="787" y="1"/>
      <point x="809" y="0"/>
      <point x="822" y="0" type="curve" smooth="yes"/>
      <point x="836" y="0" type="line"/>
      <point x="836" y="200" type="line"/>
    </contour>
    <contour>
      <point x="385" y="186" type="curve"/>
      <point x="409" y="275"/>
      <point x="433" y="357"/>
      <point x="465" y="451" type="curve"/>
      <point x="469" y="451" type="line"/>
      <point x="531" y="355"/>
      <point x="571" y="278"/>
      <point x="571" y="240" type="curve" smooth="yes"/>
      <point x="571" y="212"/>
      <point x="497" y="196"/>
    </contour>
    <contour>
      <point x="382" y="1" type="curve"/>
      <point x="420" y="8"/>
      <point x="454" y="14"/>
      <point x="486" y="14" type="curve" smooth="yes"/>
      <point x="544" y="14"/>
      <point x="584" y="-6"/>
      <point x="614" y="-45" type="curve" smooth="yes"/>
      <point x="638" y="-77"/>
      <point x="650" y="-112"/>
      <point x="650" y="-141" type="curve" smooth="yes"/>
      <point x="650" y="-160"/>
      <point x="631" y="-170"/>
      <point x="601" y="-170" type="curve" smooth="yes"/>
      <point x="507" y="-170"/>
      <point x="403" y="-81"/>
    </contour>
    <contour>
      <point x="450.915" y="947.786" type="move" name="markAbove"/>
    </contour>
    <contour>
      <point x="441.71" y="-383.792" type="move" name="markBelow"/>
    </contour>
  </outline>
</glyph>
<glyph name="arHeh.fina2" format="1">
  <advance width="818"/>
  <outline>
    <contour>
      <point x="97" y="70" type="line"/>
      <point x="233" y="176"/>
      <point x="371" y="237"/>
      <point x="457" y="237" type="curve" smooth="yes"/>
      <point x="502" y="237"/>
      <point x="513" y="210"/>
      <point x="528" y="170" type="curve" smooth="yes"/>
      <point x="569" y="55"/>
      <point x="662" y="0"/>
      <point x="804" y="0" type="curve" smooth="yes"/>
      <point x="818" y="0" type="line"/>
      <point x="818" y="200" type="line"/>
      <point x="799" y="200" type="line" smooth="yes"/>
      <point x="706" y="200"/>
      <point x="637" y="247"/>
      <point x="606" y="364" type="curve" smooth="yes"/>
      <point x="592" y="417"/>
      <point x="560" y="448"/>
      <point x="506" y="448" type="curve" smooth="yes"/>
      <point x="418" y="448"/>
      <point x="303" y="386"/>
      <point x="177" y="301" type="curve"/>
      <point x="142" y="235"/>
      <point x="110" y="161"/>
      <point x="80" y="85" type="curve"/>
    </contour>
    <contour>
      <point x="317.44" y="584.163" type="move" name="hamzaAbove"/>
    </contour>
    <contour>
      <point x="459.093" y="688.269" type="move" name="dotAbove"/>
    </contour>
    <contour>
      <point x="395.688" y="644.039" type="move" name="markAbove"/>
    </contour>
    <contour>
      <point x="395.688" y="-86.1813" type="move" name="markBelow"/>
    </contour>
    <contour>
      <point x="418.133" y="-89.9707" type="move" name="dotBelow"/>
    </contour>
  </outline>
</glyph>
<glyph name="arHeh.init" format="1">
  <advance width="917"/>
  <outline>
    <contour>
      <point x="306" y="63" type="curve"/>
      <point x="438" y="25"/>
      <point x="556" y="0"/>
      <point x="648" y="0" type="curve" smooth="yes"/>
      <point x="721" y="0"/>
      <point x="775" y="33"/>
      <point x="811" y="108" type="curve" smooth="yes"/>
      <point x="832" y="151"/>
      <point x="842" y="196"/>
      <point x="842" y="241" type="curve" smooth="yes"/>
      <point x="842" y="389"/>
      <point x="729" y="462"/>
      <point x="585" y="559" type="curve" smooth="yes"/>
      <point x="500" y="617"/>
      <point x="425" y="676"/>
      <point x="359" y="736" type="curve"/>
      <point x="342" y="736" type="line"/>
      <point x="329" y="700"/>
      <point x="318" y="663"/>
      <point x="310" y="625" type="curve"/>
      <point x="216" y="556"/>
      <point x="152" y="455"/>
      <point x="151" y="321" type="curve"/>
      <point x="151" y="286"/>
      <point x="154" y="251"/>
      <point x="158" y="216" type="curve"/>
      <point x="87" y="205"/>
      <point x="42" y="200"/>
      <point x="14" y="200" type="curve" smooth="yes"/>
      <point x="0" y="200" type="line" smooth="yes"/>
      <point x="-48" y="200"/>
      <point x="-70" y="148"/>
      <point x="-70" y="100" type="curve" smooth="yes"/>
      <point x="-70" y="52"/>
      <point x="-48" y="0"/>
      <point x="0" y="0" type="curve" smooth="yes"/>
      <point x="14" y="0" type="line" smooth="yes"/>
      <point x="92" y="0"/>
      <point x="188" y="18"/>
    </contour>
    <contour>
      <point x="357" y="241" type="curve"/>
      <point x="289" y="262"/>
      <point x="228" y="310"/>
      <point x="228" y="360" type="curve" smooth="yes"/>
      <point x="228" y="407"/>
      <point x="302" y="481"/>
      <point x="365" y="481" type="curve" smooth="yes"/>
      <point x="427" y="481"/>
      <point x="477" y="405"/>
      <point x="477" y="330" type="curve" smooth="yes"/>
      <point x="477" y="298"/>
      <point x="432" y="258"/>
    </contour>
    <contour>
      <point x="505" y="200" type="curve"/>
      <point x="530" y="252"/>
      <point x="548" y="305"/>
      <point x="556" y="362" type="curve"/>
      <point x="665" y="297"/>
      <point x="738" y="238"/>
      <point x="738" y="193" type="curve" smooth="yes"/>
      <point x="738" y="178"/>
      <point x="716" y="171"/>
      <point x="678" y="171" type="curve" smooth="yes"/>
      <point x="631" y="171"/>
      <point x="570" y="181"/>
    </contour>
    <contour>
      <point x="342" y="951" type="move" name="markAbove"/>
    </contour>
    <contour>
      <point x="274.773" y="-120.691" type="move" name="markBelow"/>
    </contour>
    <contour>
      <point x="348.72" y="914.22" type="move" name="dotAbove"/>
    </contour>
    <contour>
      <point x="323.354" y="-149.073" type="move" name="dotBelow"/>
    </contour>
  </outline>
</glyph>
<glyph name="arHeh.init2" format="1">
  <advance width="435"/>
  <outline>
    <contour>
      <point x="244" y="599" type="line"/>
      <point x="210" y="554"/>
      <point x="176" y="502"/>
      <point x="142" y="443" type="curve"/>
      <point x="188" y="364"/>
      <point x="240" y="263"/>
      <point x="240" y="239" type="curve" smooth="yes"/>
      <point x="240" y="223"/>
      <point x="137" y="200"/>
      <point x="22" y="200" type="curve" smooth="yes"/>
      <point x="0" y="200" type="line" smooth="yes"/>
      <point x="-48" y="200"/>
      <point x="-70" y="148"/>
      <point x="-70" y="100" type="curve" smooth="yes"/>
      <point x="-70" y="52"/>
      <point x="-48" y="0"/>
      <point x="0" y="0" type="curve" smooth="yes"/>
      <point x="14" y="0" type="line" smooth="yes"/>
      <point x="105" y="0"/>
      <point x="170" y="13"/>
      <point x="216" y="34" type="curve" smooth="yes"/>
      <point x="250" y="49"/>
      <point x="282" y="78"/>
      <point x="314" y="136" type="curve"/>
      <point x="344" y="200"/>
      <point x="355" y="259"/>
      <point x="355" y="318" type="curve" smooth="yes"/>
      <point x="355" y="382"/>
      <point x="323" y="473"/>
      <point x="254" y="597" type="curve"/>
    </contour>
    <contour>
      <point x="175" y="-64" type="line"/>
      <point x="96" y="-142"/>
      <point x="60" y="-222"/>
      <point x="60" y="-308" type="curve" smooth="yes"/>
      <point x="60" y="-373"/>
      <point x="96" y="-439"/>
      <point x="170" y="-439" type="curve" smooth="yes"/>
      <point x="230" y="-439"/>
      <point x="273" y="-382"/>
      <point x="273" y="-323" type="curve" smooth="yes"/>
      <point x="273" y="-275"/>
      <point x="244" y="-248"/>
      <point x="197" y="-248" type="curve" smooth="yes"/>
      <point x="174" y="-248"/>
      <point x="158" y="-239"/>
      <point x="158" y="-220" type="curve" smooth="yes"/>
      <point x="158" y="-188"/>
      <point x="181" y="-147"/>
      <point x="216" y="-107" type="curve"/>
    </contour>
    <contour>
      <point x="115" y="838.456" type="move" name="markAbove"/>
    </contour>
    <contour>
      <point x="175.787" y="-467.144" type="move" name="markBelow"/>
    </contour>
    <contour>
      <point x="151.893" y="797.496" type="move" name="dotAbove"/>
    </contour>
    <contour>
      <point x="179.2" y="-586.611" type="move" name="dotBelow"/>
    </contour>
  </outline>
</glyph>
<glyph name="arHeh.medi" format="1">
  <advance width="632"/>
  <outline>
    <contour>
      <point x="449" y="200" type="line"/>
      <point x="460" y="233"/>
      <point x="467" y="265"/>
      <point x="467" y="298" type="curve" smooth="yes"/>
      <point x="467" y="386"/>
      <point x="419" y="482"/>
      <point x="359" y="580" type="curve" smooth="yes"/>
      <point x="299" y="679" type="line"/>
      <point x="283" y="679" type="line"/>
      <point x="208" y="560"/>
      <point x="152" y="399"/>
      <point x="112" y="200" type="curve"/>
      <point x="0" y="200" type="line" smooth="yes"/>
      <point x="-48" y="200"/>
      <point x="-70" y="148"/>
      <point x="-70" y="100" type="curve" smooth="yes"/>
      <point x="-70" y="52"/>
      <point x="-48" y="0"/>
      <point x="0" y="0" type="curve" smooth="yes"/>
      <point x="16" y="0"/>
      <point x="39" y="0"/>
      <point x="81" y="3" type="curve"/>
      <point x="81" y="-214"/>
      <point x="229" y="-330"/>
      <point x="353" y="-330" type="curve" smooth="yes"/>
      <point x="492" y="-330"/>
      <point x="565" y="-187"/>
      <point x="565" y="-96" type="curve" smooth="yes"/>
      <point x="565" y="-62"/>
      <point x="562" y="-29"/>
      <point x="549" y="5" type="curve"/>
      <point x="583" y="1"/>
      <point x="605" y="0"/>
      <point x="618" y="0" type="curve" smooth="yes"/>
      <point x="632" y="0" type="line"/>
      <point x="632" y="200" type="line"/>
    </contour>
    <contour>
      <point x="184" y="200" type="curve"/>
      <point x="205" y="275"/>
      <point x="229" y="357"/>
      <point x="261" y="451" type="curve"/>
      <point x="265" y="451" type="line"/>
      <point x="327" y="355"/>
      <point x="367" y="278"/>
      <point x="367" y="240" type="curve" smooth="yes"/>
      <point x="367" y="208"/>
      <point x="299" y="200"/>
    </contour>
    <contour>
      <point x="177" y="5" type="curve"/>
      <point x="215" y="11"/>
      <point x="250" y="14"/>
      <point x="282" y="14" type="curve" smooth="yes"/>
      <point x="340" y="14"/>
      <point x="380" y="-6"/>
      <point x="410" y="-45" type="curve" smooth="yes"/>
      <point x="434" y="-77"/>
      <point x="446" y="-112"/>
      <point x="446" y="-141" type="curve" smooth="yes"/>
      <point x="446" y="-160"/>
      <point x="427" y="-170"/>
      <point x="397" y="-170" type="curve" smooth="yes"/>
      <point x="303" y="-170"/>
      <point x="198" y="-79"/>
    </contour>
    <contour>
      <point x="278" y="925.496" type="move" name="markAbove"/>
    </contour>
    <contour>
      <point x="298.667" y="-450.077" type="move" name="markBelow"/>
    </contour>
    <contour>
      <point x="288.549" y="834.256" type="move" name="dotAbove"/>
    </contour>
    <contour>
      <point x="289.573" y="-468.805" type="move" name="dotBelow"/>
    </contour>
  </outline>
</glyph>
<glyph name="arHeh.medi2" format="1">
  <advance width="639"/>
  <outline>
    <contour>
      <point x="639" y="200" type="line"/>
      <point x="625" y="200" type="line" smooth="yes"/>
      <point x="542" y="200"/>
      <point x="486" y="170"/>
      <point x="451" y="124" type="curve" smooth="yes"/>
      <point x="407" y="65"/>
      <point x="388" y="-7"/>
      <point x="388" y="-81" type="curve" smooth="yes"/>
      <point x="388" y="-116"/>
      <point x="392" y="-148"/>
      <point x="397" y="-178" type="curve"/>
      <point x="392" y="-179" type="line"/>
      <point x="336" y="-107"/>
      <point x="292" y="-34"/>
      <point x="292" y="54" type="curve" smooth="yes"/>
      <point x="292" y="130"/>
      <point x="365" y="230"/>
      <point x="406" y="329" type="curve"/>
      <point x="390" y="345" type="line"/>
      <point x="362" y="335"/>
      <point x="334" y="322"/>
      <point x="306" y="309" type="curve"/>
      <point x="262" y="236"/>
      <point x="234" y="200"/>
      <point x="14" y="200" type="curve" smooth="yes"/>
      <point x="0" y="200" type="line" smooth="yes"/>
      <point x="-48" y="200"/>
      <point x="-70" y="148"/>
      <point x="-70" y="100" type="curve" smooth="yes"/>
      <point x="-70" y="52"/>
      <point x="-48" y="0"/>
      <point x="0" y="0" type="curve" smooth="yes"/>
      <point x="14" y="0" type="line" smooth="yes"/>
      <point x="92" y="0"/>
      <point x="162" y="8"/>
      <point x="211" y="40" type="curve"/>
      <point x="203" y="4"/>
      <point x="198" y="-31"/>
      <point x="198" y="-67" type="curve" smooth="yes"/>
      <point x="198" y="-215"/>
      <point x="288" y="-335"/>
      <point x="426" y="-448" type="curve"/>
      <point x="435" y="-448" type="line"/>
      <point x="467" y="-396"/>
      <point x="490" y="-340"/>
      <point x="490" y="-310" type="curve" smooth="yes"/>
      <point x="490" y="-274"/>
      <point x="461" y="-181"/>
      <point x="461" y="-78" type="curve" smooth="yes"/>
      <point x="461" y="-20"/>
      <point x="526" y="0"/>
      <point x="625" y="0" type="curve" smooth="yes"/>
      <point x="639" y="0" type="line"/>
    </contour>
    <contour>
      <point x="308.907" y="672" type="move" name="markAbove"/>
    </contour>
    <contour>
      <point x="332.8" y="-502.984" type="move" name="markBelow"/>
    </contour>
    <contour>
      <point x="377.173" y="589.283" type="move" name="dotAbove"/>
    </contour>
    <contour>
      <point x="349.867" y="-598.557" type="move" name="dotBelow"/>
    </contour>
  </outline>
</glyph>
<glyph name="arKaf.isol" format="1">
  <advance width="1038"/>
  <outline>
    <contour>
      <point x="876" y="1029" type="line"/>
      <point x="841" y="1003"/>
      <point x="817" y="978"/>
      <point x="798" y="954" type="curve" smooth="yes"/>
      <point x="779" y="930"/>
      <point x="771" y="898"/>
      <point x="771" y="861" type="curve" smooth="yes"/>
      <point x="771" y="814"/>
      <point x="805" y="584"/>
      <point x="805" y="368" type="curve" smooth="yes"/>
      <point x="805" y="333"/>
      <point x="805" y="299"/>
      <point x="802" y="265" type="curve"/>
      <point x="712" y="212"/>
      <point x="577" y="181"/>
      <point x="471" y="181" type="curve" smooth="yes"/>
      <point x="244" y="181"/>
      <point x="191" y="291"/>
      <point x="191" y="401" type="curve" smooth="yes"/>
      <point x="191" y="438"/>
      <point x="201" y="482"/>
      <point x="220" y="527" type="curve"/>
      <point x="158" y="551" type="line"/>
      <point x="121" y="466"/>
      <point x="100" y="383"/>
      <point x="100" y="301" type="curve" smooth="yes"/>
      <point x="100" y="98"/>
      <point x="199" y="-20"/>
      <point x="432" y="-20" type="curve" smooth="yes"/>
      <point x="579" y="-20"/>
      <point x="726" y="23"/>
      <point x="821" y="91" type="curve"/>
      <point x="883" y="183"/>
      <point x="914" y="297"/>
      <point x="914" y="432" type="curve" smooth="yes"/>
      <point x="914" y="517"/>
      <point x="913" y="601"/>
      <point x="908" y="686" type="curve"/>
      <point x="998" y="754" type="line"/>
      <point x="926" y="874"/>
      <point x="888" y="955"/>
      <point x="888" y="1021" type="curve"/>
    </contour>
    <contour>
      <point x="589" y="686" type="line"/>
      <point x="596" y="707"/>
      <point x="601" y="726"/>
      <point x="601" y="747" type="curve" smooth="yes"/>
      <point x="601" y="778"/>
      <point x="590" y="799"/>
      <point x="559" y="799" type="curve" smooth="yes"/>
      <point x="534" y="799"/>
      <point x="502" y="778"/>
      <point x="465" y="746" type="curve" smooth="yes"/>
      <point x="416" y="702"/>
      <point x="387" y="641"/>
      <point x="387" y="567" type="curve" smooth="yes"/>
      <point x="387" y="556"/>
      <point x="387" y="548"/>
      <point x="389" y="537" type="curve"/>
      <point x="483" y="536"/>
      <point x="558" y="539"/>
      <point x="558" y="521" type="curve" smooth="yes"/>
      <point x="558" y="494"/>
      <point x="475" y="476"/>
      <point x="328" y="466" type="curve"/>
      <point x="323" y="450" type="line"/>
      <point x="351" y="431"/>
      <point x="381" y="414"/>
      <point x="413" y="398" type="curve"/>
      <point x="433" y="394"/>
      <point x="450" y="393"/>
      <point x="464" y="393" type="curve" smooth="yes"/>
      <point x="547" y="393"/>
      <point x="601" y="427"/>
      <point x="620" y="495" type="curve" smooth="yes"/>
      <point x="628" y="523"/>
      <point x="631" y="543"/>
      <point x="631" y="555" type="curve" smooth="yes"/>
      <point x="631" y="613"/>
      <point x="598" y="638"/>
      <point x="536" y="638" type="curve" smooth="yes"/>
      <point x="463" y="638" type="line"/>
      <point x="463" y="640" type="line"/>
      <point x="496" y="677"/>
      <point x="527" y="697"/>
      <point x="550" y="697" type="curve" smooth="yes"/>
      <point x="562" y="697"/>
      <point x="571" y="692"/>
      <point x="579" y="684" type="curve"/>
    </contour>
    <contour>
      <point x="358.87" y="871.082" type="move" name="markAbove"/>
    </contour>
    <contour>
      <point x="432.506" y="-144.476" type="move" name="markBelow"/>
    </contour>
    <contour>
      <point x="484.693" y="-158.237" type="move" name="dotBelow"/>
    </contour>
    <contour>
      <point x="828.122" y="1134.57" type="move" name="dotAbove"/>
    </contour>
  </outline>
</glyph>
<glyph name="arLam.fina" format="1">
  <advance width="914"/>
  <outline>
    <contour>
      <point x="914" y="200" type="line"/>
      <point x="900" y="200" type="line" smooth="yes"/>
      <point x="860" y="200"/>
      <point x="826" y="213"/>
      <point x="799" y="242" type="curve"/>
      <point x="774" y="272"/>
      <point x="763" y="315"/>
      <point x="763" y="380" type="curve"/>
      <point x="762" y="630"/>
      <point x="757" y="829"/>
      <point x="750" y="985" type="curve"/>
      <point x="734" y="993" type="line"/>
      <point x="698" y="963"/>
      <point x="662" y="927"/>
      <point x="628" y="887" type="curve"/>
      <point x="642" y="650"/>
      <point x="658" y="374"/>
      <point x="658" y="212" type="curve" smooth="yes"/>
      <point x="658" y="171"/>
      <point x="657" y="126"/>
      <point x="655" y="79" type="curve"/>
      <point x="586" y="-3"/>
      <point x="474" y="-44"/>
      <point x="396" y="-44" type="curve" smooth="yes"/>
      <point x="261" y="-44"/>
      <point x="179" y="47"/>
      <point x="179" y="179" type="curve" smooth="yes"/>
      <point x="179" y="221"/>
      <point x="193" y="277"/>
      <point x="222" y="348" type="curve"/>
      <point x="167" y="372" type="line"/>
      <point x="116" y="277"/>
      <point x="89" y="173"/>
      <point x="89" y="69" type="curve" smooth="yes"/>
      <point x="89" y="-78"/>
      <point x="162" y="-246"/>
      <point x="381" y="-246" type="curve" smooth="yes"/>
      <point x="499" y="-246"/>
      <point x="620" y="-188"/>
      <point x="699" y="-82" type="curve"/>
      <point x="722" y="-33"/>
      <point x="738" y="18"/>
      <point x="742" y="69" type="curve"/>
      <point x="746" y="69" type="line"/>
      <point x="782" y="24"/>
      <point x="832" y="0"/>
      <point x="900" y="0" type="curve" smooth="yes"/>
      <point x="914" y="0" type="line"/>
    </contour>
    <contour>
      <point x="676.693" y="1036.43" type="move" name="smallVAbove"/>
    </contour>
    <contour>
      <point x="253.44" y="592.696" type="move" name="markAbove"/>
    </contour>
    <contour>
      <point x="330.24" y="-337.437" type="move" name="markBelow"/>
    </contour>
    <contour>
      <point x="676.693" y="1106.4" type="move" name="dotAbove"/>
    </contour>
    <contour>
      <point x="430.08" y="-372.936" type="move" name="dotBelow"/>
    </contour>
  </outline>
</glyph>
<glyph name="arLam.init.la" format="1">
  <advance width="339.933" height="1368"/>
  <outline>
    <contour>
      <point x="-468" y="-10" type="line"/>
      <point x="-359" y="-53"/>
      <point x="-260" y="-71"/>
      <point x="-170" y="-71" type="curve" smooth="yes"/>
      <point x="-17" y="-71"/>
      <point x="60.0076" y="-11.0043"/>
      <point x="113" y="83" type="curve" smooth="yes"/>
      <point x="175.007" y="192.996"/>
      <point x="200" y="335"/>
      <point x="200" y="499" type="curve" smooth="yes"/>
      <point x="200" y="689" type="line"/>
      <point x="291" y="756" type="line"/>
      <point x="226" y="864"/>
      <point x="180" y="954"/>
      <point x="180" y="998" type="curve" smooth="yes"/>
      <point x="180" y="1009"/>
      <point x="182" y="1016"/>
      <point x="184" y="1021" type="curve"/>
      <point x="167" y="1032" type="line"/>
      <point x="87" y="971"/>
      <point x="66" y="925"/>
      <point x="66" y="870" type="curve" smooth="yes"/>
      <point x="66" y="783"/>
      <point x="93" y="724"/>
      <point x="93" y="341" type="curve" smooth="yes"/>
      <point x="93" y="228"/>
      <point x="58" y="191"/>
      <point x="10" y="163" type="curve"/>
      <point x="-15.1394" y="151.758"/>
      <point x="-31.2979" y="144.869"/>
      <point x="-44" y="140" type="curve"/>
      <point x="-127" y="102"/>
      <point x="-262" y="61"/>
      <point x="-468" y="15" type="curve"/>
    </contour>
    <contour>
      <point x="-45.1311" y="967.496" type="move" name="smallVAbove"/>
    </contour>
    <contour>
      <point x="132" y="1076.65" type="move" name="markAbove"/>
    </contour>
    <contour>
      <point x="23" y="-81.7516" type="move" name="markBelow"/>
    </contour>
    <contour>
      <point x="57.3466" y="-193.985" type="move" name="dotBelow"/>
    </contour>
    <contour>
      <point x="186" y="1156.82" type="move" name="dotAbove"/>
    </contour>
  </outline>
</glyph>
<glyph name="arLam.isol" format="1">
  <advance width="891"/>
  <outline>
    <contour>
      <point x="729" y="1029" type="line"/>
      <point x="694" y="1003"/>
      <point x="670" y="978"/>
      <point x="651" y="954" type="curve" smooth="yes"/>
      <point x="632" y="930"/>
      <point x="624" y="898"/>
      <point x="624" y="861" type="curve" smooth="yes"/>
      <point x="624" y="822"/>
      <point x="633" y="784"/>
      <point x="637" y="734" type="curve" smooth="yes"/>
      <point x="651" y="571"/>
      <point x="665" y="358"/>
      <point x="665" y="255" type="curve" smooth="yes"/>
      <point x="665" y="214"/>
      <point x="665" y="181"/>
      <point x="663" y="156" type="curve"/>
      <point x="644" y="128"/>
      <point x="608" y="101"/>
      <point x="552" y="73" type="curve" smooth="yes"/>
      <point x="501" y="47"/>
      <point x="447" y="32"/>
      <point x="396" y="32" type="curve" smooth="yes"/>
      <point x="259" y="32"/>
      <point x="185" y="121"/>
      <point x="185" y="236" type="curve" smooth="yes"/>
      <point x="185" y="286"/>
      <point x="201" y="342"/>
      <point x="225" y="403" type="curve"/>
      <point x="172" y="429" type="line"/>
      <point x="125" y="336"/>
      <point x="97" y="235"/>
      <point x="97" y="128" type="curve" smooth="yes"/>
      <point x="97" y="-56"/>
      <point x="204" y="-181"/>
      <point x="372" y="-181" type="curve" smooth="yes"/>
      <point x="494" y="-181"/>
      <point x="646" y="-117"/>
      <point x="720" y="12" type="curve"/>
      <point x="753" y="111"/>
      <point x="768" y="215"/>
      <point x="768" y="349" type="curve" smooth="yes"/>
      <point x="768" y="467"/>
      <point x="766" y="579"/>
      <point x="761" y="686" type="curve"/>
      <point x="851" y="754" type="line"/>
      <point x="779" y="874"/>
      <point x="741" y="955"/>
      <point x="741" y="1021" type="curve"/>
    </contour>
    <contour>
      <point x="674.987" y="1099.58" type="move" name="smallVAbove"/>
    </contour>
    <contour>
      <point x="308.053" y="575.629" type="move" name="markAbove"/>
    </contour>
    <contour>
      <point x="321.707" y="-265.757" type="move" name="markBelow"/>
    </contour>
    <contour>
      <point x="675.84" y="1149.07" type="move" name="dotAbove"/>
    </contour>
    <contour>
      <point x="396" y="-340.851" type="move" name="dotBelow"/>
    </contour>
  </outline>
</glyph>
<glyph name="arNoon.isol" format="1">
  <advance width="911"/>
  <outline>
    <contour>
      <point x="709" y="601" type="line"/>
      <point x="668" y="541"/>
      <point x="633" y="487"/>
      <point x="603" y="431" type="curve"/>
      <point x="683" y="278"/>
      <point x="718" y="171"/>
      <point x="718" y="101" type="curve" smooth="yes"/>
      <point x="718" y="80"/>
      <point x="711" y="64"/>
      <point x="698" y="50" type="curve" smooth="yes"/>
      <point x="641" y="-9"/>
      <point x="523" y="-61"/>
      <point x="422" y="-61" type="curve" smooth="yes"/>
      <point x="358" y="-61"/>
      <point x="184" y="-34"/>
      <point x="184" y="174" type="curve" smooth="yes"/>
      <point x="184" y="217"/>
      <point x="202" y="282"/>
      <point x="235" y="351" type="curve"/>
      <point x="180" y="379" type="line"/>
      <point x="118" y="265"/>
      <point x="89" y="159"/>
      <point x="89" y="59" type="curve" smooth="yes"/>
      <point x="89" y="-138"/>
      <point x="212" y="-273"/>
      <point x="405" y="-273" type="curve" smooth="yes"/>
      <point x="531" y="-273"/>
      <point x="684" y="-204"/>
      <point x="765" y="-88" type="curve"/>
      <point x="802" y="-5"/>
      <point x="826" y="85"/>
      <point x="826" y="158" type="curve" smooth="yes"/>
      <point x="826" y="314"/>
      <point x="786" y="459"/>
      <point x="721" y="599" type="curve"/>
    </contour>
    <contour>
      <point x="368.64" y="682.723" type="move" name="markAbove"/>
    </contour>
    <contour>
      <point x="426.667" y="685.197" type="move" name="dotAbove"/>
    </contour>
    <contour>
      <point x="394.24" y="-352" type="move" name="markBelow"/>
    </contour>
    <contour>
      <point x="692.907" y="-240.157" type="move" name="ringBelow"/>
    </contour>
    <contour>
      <point x="434.89" y="-392.085" type="move" name="dotBelow"/>
    </contour>
  </outline>
</glyph>
<glyph name="arReh.isol" format="1">
  <advance width="651"/>
  <outline>
    <contour>
      <point x="430" y="530" type="line"/>
      <point x="400" y="478"/>
      <point x="368" y="420"/>
      <point x="340" y="360" type="curve"/>
      <point x="436" y="216"/>
      <point x="474" y="146"/>
      <point x="474" y="110" type="curve" smooth="yes"/>
      <point x="474" y="78"/>
      <point x="432" y="9"/>
      <point x="364" y="-59" type="curve" smooth="yes"/>
      <point x="288" y="-133"/>
      <point x="203" y="-180"/>
      <point x="121" y="-180" type="curve" smooth="yes"/>
      <point x="84" y="-180"/>
      <point x="51" y="-176"/>
      <point x="21" y="-168" type="curve"/>
      <point x="2" y="-221" type="line"/>
      <point x="93" y="-276"/>
      <point x="199" y="-308"/>
      <point x="276" y="-308" type="curve" smooth="yes"/>
      <point x="363" y="-308"/>
      <point x="440" y="-246"/>
      <point x="503" y="-139" type="curve" smooth="yes"/>
      <point x="549" y="-59"/>
      <point x="567" y="30"/>
      <point x="567" y="126" type="curve" smooth="yes"/>
      <point x="567" y="145"/>
      <point x="571" y="171"/>
      <point x="571" y="218" type="curve" smooth="yes"/>
      <point x="571" y="300"/>
      <point x="536" y="387"/>
      <point x="449" y="530" type="curve"/>
    </contour>
    <contour>
      <point x="379.506" y="730.73" type="move" name="dotAbove"/>
    </contour>
    <contour>
      <point x="306.712" y="650.175" type="move" name="markAbove"/>
    </contour>
    <contour>
      <point x="251.466" y="-475.954" type="move" name="dotBelow"/>
    </contour>
    <contour>
      <point x="249.173" y="-395.891" type="move" name="markBelow"/>
    </contour>
    <contour>
      <point x="279.893" y="-393.757" type="move" name="smallVBelow"/>
    </contour>
    <contour>
      <point x="233.813" y="671.544" type="move" name="hamzaAbove"/>
    </contour>
  </outline>
</glyph>
<glyph name="arSad.isol" format="1">
  <advance width="1498"/>
  <outline>
    <contour>
      <point x="770" y="231" type="line"/>
      <point x="751" y="324"/>
      <point x="726" y="406"/>
      <point x="693" y="477" type="curve"/>
      <point x="681" y="481" type="line"/>
      <point x="646" y="437"/>
      <point x="611" y="386"/>
      <point x="576" y="328" type="curve"/>
      <point x="630" y="233"/>
      <point x="668" y="135"/>
      <point x="682" y="26" type="curve"/>
      <point x="664" y="-5"/>
      <point x="631" y="-41"/>
      <point x="575" y="-77" type="curve" smooth="yes"/>
      <point x="524" y="-110"/>
      <point x="463" y="-125"/>
      <point x="398" y="-125" type="curve" smooth="yes"/>
      <point x="338" y="-125"/>
      <point x="281" y="-103"/>
      <point x="232" y="-52" type="curve"/>
      <point x="194" y="-7"/>
      <point x="178" y="46"/>
      <point x="178" y="102" type="curve" smooth="yes"/>
      <point x="178" y="160"/>
      <point x="196" y="221"/>
      <point x="223" y="284" type="curve"/>
      <point x="168" y="309" type="line"/>
      <point x="122" y="226"/>
      <point x="88" y="129"/>
      <point x="88" y="13" type="curve" smooth="yes"/>
      <point x="88" y="-216"/>
      <point x="228" y="-325"/>
      <point x="380" y="-325" type="curve" smooth="yes"/>
      <point x="485" y="-325"/>
      <point x="578" y="-286"/>
      <point x="657" y="-211" type="curve" smooth="yes"/>
      <point x="705" y="-166"/>
      <point x="741" y="-94"/>
      <point x="767" y="12" type="curve"/>
      <point x="825" y="5"/>
      <point x="884" y="0"/>
      <point x="942" y="0" type="curve" smooth="yes"/>
      <point x="1140" y="0"/>
      <point x="1267" y="49"/>
      <point x="1346" y="138" type="curve" smooth="yes"/>
      <point x="1392" y="190"/>
      <point x="1422" y="279"/>
      <point x="1422" y="353" type="curve" smooth="yes"/>
      <point x="1422" y="499"/>
      <point x="1329" y="594"/>
      <point x="1207" y="594" type="curve" smooth="yes"/>
      <point x="1058" y="594"/>
      <point x="903" y="447"/>
      <point x="774" y="231" type="curve"/>
    </contour>
    <contour>
      <point x="850" y="210" type="curve"/>
      <point x="952" y="343"/>
      <point x="1063" y="420"/>
      <point x="1170" y="420" type="curve" smooth="yes"/>
      <point x="1237" y="420"/>
      <point x="1295" y="374"/>
      <point x="1315" y="286" type="curve"/>
      <point x="1239" y="225"/>
      <point x="1108" y="200"/>
      <point x="989" y="200" type="curve" smooth="yes"/>
      <point x="939" y="200"/>
      <point x="892" y="204"/>
    </contour>
    <contour>
      <point x="979.491" y="753.643" type="move" name="dotAbove"/>
    </contour>
    <contour>
      <point x="324.267" y="615.907" type="move" name="markAbove"/>
    </contour>
    <contour>
      <point x="399.36" y="-397.853" type="move" name="markBelow"/>
    </contour>
    <contour>
      <point x="970.948" y="-194.526" type="move" name="dotBelow"/>
    </contour>
  </outline>
</glyph>
<glyph name="arSeen.init" format="1">
  <advance width="921"/>
  <outline>
    <contour>
      <point x="806" y="512" type="line"/>
      <point x="766" y="473"/>
      <point x="731" y="434"/>
      <point x="696" y="395" type="curve"/>
      <point x="712" y="343"/>
      <point x="723" y="282"/>
      <point x="733" y="222" type="curve"/>
      <point x="726" y="209"/>
      <point x="707" y="203"/>
      <point x="684" y="203" type="curve" smooth="yes"/>
      <point x="656" y="203"/>
      <point x="631" y="215"/>
      <point x="610" y="236" type="curve" smooth="yes"/>
      <point x="589" y="258"/>
      <point x="581" y="285"/>
      <point x="581" y="315" type="curve" smooth="yes"/>
      <point x="581" y="346"/>
      <point x="586" y="378"/>
      <point x="597" y="411" type="curve"/>
      <point x="588" y="418" type="line"/>
      <point x="564" y="405"/>
      <point x="539" y="390"/>
      <point x="513" y="371" type="curve"/>
      <point x="497" y="309"/>
      <point x="493" y="251"/>
      <point x="429" y="219" type="curve" smooth="yes"/>
      <point x="407" y="208"/>
      <point x="386" y="201"/>
      <point x="361" y="200" type="curve"/>
      <point x="338" y="200"/>
      <point x="315" y="215"/>
      <point x="315" y="248" type="curve" smooth="yes"/>
      <point x="315" y="277"/>
      <point x="339" y="324"/>
      <point x="377" y="382" type="curve"/>
      <point x="370" y="393" type="line"/>
      <point x="341" y="383"/>
      <point x="311" y="371"/>
      <point x="280" y="355" type="curve"/>
      <point x="257" y="324"/>
      <point x="230" y="280"/>
      <point x="202" y="254" type="curve" smooth="yes"/>
      <point x="166" y="219"/>
      <point x="106" y="200"/>
      <point x="14" y="200" type="curve" smooth="yes"/>
      <point x="0" y="200" type="line" smooth="yes"/>
      <point x="-48" y="200"/>
      <point x="-70" y="148"/>
      <point x="-70" y="100" type="curve" smooth="yes"/>
      <point x="-70" y="52"/>
      <point x="-48" y="0"/>
      <point x="0" y="0" type="curve" smooth="yes"/>
      <point x="14" y="0" type="line" smooth="yes"/>
      <point x="106" y="0"/>
      <point x="171" y="31"/>
      <point x="221" y="79" type="curve"/>
      <point x="224" y="79" type="line"/>
      <point x="235" y="21"/>
      <point x="280" y="0"/>
      <point x="331" y="0" type="curve" smooth="yes"/>
      <point x="379" y="0"/>
      <point x="440" y="29"/>
      <point x="496" y="88" type="curve"/>
      <point x="498" y="88" type="line"/>
      <point x="542" y="29"/>
      <point x="588" y="3"/>
      <point x="638" y="3" type="curve" smooth="yes"/>
      <point x="692" y="3"/>
      <point x="739" y="41"/>
      <point x="784" y="103" type="curve"/>
      <point x="817" y="154"/>
      <point x="843" y="224"/>
      <point x="843" y="278" type="curve" smooth="yes"/>
      <point x="843" y="338"/>
      <point x="840" y="393"/>
      <point x="820" y="506" type="curve"/>
    </contour>
    <contour>
      <point x="547.713" y="647.459" type="move" name="dotAbove"/>
    </contour>
    <contour>
      <point x="515.346" y="653.244" type="move" name="markAbove"/>
    </contour>
    <contour>
      <point x="475.46" y="-169.021" type="move" name="markBelow"/>
    </contour>
    <contour>
      <point x="509.191" y="-155.093" type="move" name="dotBelow"/>
    </contour>
  </outline>
</glyph>
<glyph name="arTah.medi" format="1">
  <advance width="940"/>
  <outline>
    <contour>
      <point x="228" y="361" type="line"/>
      <point x="245" y="412"/>
      <point x="257" y="457"/>
      <point x="257" y="532" type="curve" smooth="yes"/>
      <point x="257" y="616"/>
      <point x="257" y="683"/>
      <point x="254" y="750" type="curve"/>
      <point x="340" y="814" type="line"/>
      <point x="277" y="920"/>
      <point x="231" y="1010"/>
      <point x="231" y="1082" type="curve"/>
      <point x="216" y="1091" type="line"/>
      <point x="150" y="1034"/>
      <point x="117" y="1000"/>
      <point x="117" y="924" type="curve" smooth="yes"/>
      <point x="117" y="876"/>
      <point x="147" y="789"/>
      <point x="147" y="414" type="curve" smooth="yes"/>
      <point x="147" y="353"/>
      <point x="143" y="299"/>
      <point x="135" y="256" type="curve"/>
      <point x="89" y="200" type="line"/>
      <point x="0" y="200" type="line" smooth="yes"/>
      <point x="-48" y="200"/>
      <point x="-70" y="148"/>
      <point x="-70" y="100" type="curve" smooth="yes"/>
      <point x="-70" y="52"/>
      <point x="-48" y="0"/>
      <point x="0" y="0" type="curve" smooth="yes"/>
      <point x="14" y="0" type="line" smooth="yes"/>
      <point x="207" y="0"/>
      <point x="397" y="2"/>
      <point x="569" y="26" type="curve"/>
      <point x="679" y="11"/>
      <point x="792" y="0"/>
      <point x="926" y="0" type="curve" smooth="yes"/>
      <point x="940" y="0" type="line"/>
      <point x="940" y="200" type="line"/>
      <point x="820" y="200" type="line"/>
      <point x="838" y="237"/>
      <point x="851" y="280"/>
      <point x="851" y="322" type="curve" smooth="yes"/>
      <point x="851" y="377"/>
      <point x="835" y="428"/>
      <point x="803" y="474" type="curve" smooth="yes"/>
      <point x="755" y="542"/>
      <point x="687" y="577"/>
      <point x="595" y="577" type="curve" smooth="yes"/>
      <point x="468" y="577"/>
      <point x="344" y="479"/>
      <point x="232" y="360" type="curve"/>
    </contour>
    <contour>
      <point x="208" y="200" type="curve"/>
      <point x="325" y="317"/>
      <point x="442" y="395"/>
      <point x="548" y="395" type="curve" smooth="yes"/>
      <point x="670" y="395"/>
      <point x="737" y="297"/>
      <point x="737" y="269" type="curve" smooth="yes"/>
      <point x="737" y="257"/>
      <point x="711" y="245"/>
      <point x="679" y="234" type="curve" smooth="yes"/>
      <point x="594" y="207"/>
      <point x="416" y="200"/>
    </contour>
    <contour>
      <point x="563.521" y="753.912" type="move" name="dotAbove"/>
    </contour>
    <contour>
      <point x="631.936" y="659.38" type="move" name="markAbove"/>
    </contour>
    <contour>
      <point x="536.823" y="-162.885" type="move" name="markBelow"/>
    </contour>
    <contour>
      <point x="513.889" y="-149.37" type="move" name="dotBelow"/>
    </contour>
  </outline>
</glyph>
<glyph name="arWaw.fina" format="1">
  <advance width="696"/>
  <outline>
    <contour>
      <point x="628" y="200" type="line"/>
      <point x="588" y="408"/>
      <point x="516" y="529"/>
      <point x="404" y="529" type="curve" smooth="yes"/>
      <point x="346" y="529"/>
      <point x="292" y="497"/>
      <point x="244" y="440" type="curve" smooth="yes"/>
      <point x="193" y="380"/>
      <point x="168" y="314"/>
      <point x="168" y="241" type="curve" smooth="yes"/>
      <point x="168" y="61"/>
      <point x="295" y="0"/>
      <point x="486" y="0" type="curve" smooth="yes"/>
      <point x="514" y="0" type="line"/>
      <point x="495" y="-40"/>
      <point x="453" y="-84"/>
      <point x="398" y="-126" type="curve" smooth="yes"/>
      <point x="318" y="-188"/>
      <point x="234" y="-229"/>
      <point x="148" y="-229" type="curve" smooth="yes"/>
      <point x="103" y="-229"/>
      <point x="63" y="-217"/>
      <point x="26" y="-201" type="curve"/>
      <point x="3" y="-254" type="line"/>
      <point x="109" y="-326"/>
      <point x="207" y="-365"/>
      <point x="297" y="-365" type="curve" smooth="yes"/>
      <point x="453" y="-365"/>
      <point x="579" y="-181"/>
      <point x="621" y="0" type="curve"/>
      <point x="696" y="0" type="line"/>
      <point x="696" y="200" type="line"/>
    </contour>
    <contour>
      <point x="527" y="200" type="curve"/>
      <point x="515" y="198"/>
      <point x="502" y="197"/>
      <point x="488" y="197" type="curve" smooth="yes"/>
      <point x="357" y="197"/>
      <point x="255" y="235"/>
      <point x="255" y="293" type="curve" smooth="yes"/>
      <point x="255" y="318"/>
      <point x="292" y="366"/>
      <point x="356" y="366" type="curve" smooth="yes"/>
      <point x="433" y="366"/>
      <point x="490" y="300"/>
    </contour>
    <contour>
      <point x="356" y="749.709" type="move" name="dotAbove"/>
    </contour>
    <contour>
      <point x="365.007" y="640.971" type="move" name="markAbove"/>
    </contour>
    <contour>
      <point x="293.547" y="-438.813" type="move" name="markBelow"/>
    </contour>
    <contour>
      <point x="378.88" y="695" type="move" name="smallVAbove"/>
    </contour>
    <contour>
      <point x="353" y="672" type="move" name="hamzaAbove"/>
    </contour>
    <contour>
      <point x="317.44" y="-502.643" type="move" name="dotBelow"/>
    </contour>
  </outline>
</glyph>
<glyph name="arWaw.isol" format="1">
  <advance width="719"/>
  <outline>
    <contour>
      <point x="531" y="78" type="curve"/>
      <point x="500" y="19"/>
      <point x="452" y="-36"/>
      <point x="387" y="-84" type="curve" smooth="yes"/>
      <point x="307" y="-143"/>
      <point x="223" y="-177"/>
      <point x="140" y="-177" type="curve" smooth="yes"/>
      <point x="98" y="-177"/>
      <point x="60" y="-168"/>
      <point x="24" y="-154" type="curve"/>
      <point x="3" y="-209" type="line"/>
      <point x="104" y="-278"/>
      <point x="205" y="-321"/>
      <point x="301" y="-321" type="curve" smooth="yes"/>
      <point x="372" y="-321"/>
      <point x="448" y="-284"/>
      <point x="535" y="-170" type="curve"/>
      <point x="598" y="-77"/>
      <point x="639" y="31"/>
      <point x="639" y="177" type="curve" smooth="yes"/>
      <point x="639" y="413"/>
      <point x="542" y="580"/>
      <point x="431" y="580" type="curve" smooth="yes"/>
      <point x="372" y="580"/>
      <point x="316" y="544"/>
      <point x="263" y="488" type="curve"/>
      <point x="210" y="425"/>
      <point x="184" y="352"/>
      <point x="184" y="267" type="curve" smooth="yes"/>
      <point x="184" y="154"/>
      <point x="261" y="65"/>
      <point x="415" y="65" type="curve" smooth="yes"/>
      <point x="457" y="65"/>
      <point x="500" y="69"/>
    </contour>
    <contour>
      <point x="540" y="253" type="curve"/>
      <point x="516" y="249"/>
      <point x="489" y="247"/>
      <point x="457" y="247" type="curve" smooth="yes"/>
      <point x="350" y="247"/>
      <point x="273" y="295"/>
      <point x="273" y="341" type="curve" smooth="yes"/>
      <point x="273" y="374"/>
      <point x="316" y="413"/>
      <point x="384" y="413" type="curve" smooth="yes"/>
      <point x="445" y="413"/>
      <point x="515" y="343"/>
    </contour>
    <contour>
      <point x="394.24" y="828.216" type="move" name="dotAbove"/>
    </contour>
    <contour>
      <point x="321" y="711.48" type="move" name="hamzaAbove"/>
    </contour>
    <contour>
      <point x="398.756" y="647.107" type="move" name="markAbove"/>
    </contour>
    <contour>
      <point x="317.44" y="-379" type="move" name="markBelow"/>
    </contour>
    <contour>
      <point x="399.36" y="738.787" type="move" name="smallVAbove"/>
    </contour>
    <contour>
      <point x="313.355" y="-472.534" type="move" name="dotBelow"/>
    </contour>
  </outline>
</glyph>
<glyph name="arYeh.fina" format="1">
  <advance width="1025"/>
  <outline>
    <contour>
      <point x="661" y="200" type="line"/>
      <point x="567" y="36" type="line"/>
      <point x="581" y="18" type="line"/>
      <point x="729" y="12"/>
      <point x="834" y="-7"/>
      <point x="872" y="-50" type="curve"/>
      <point x="745" y="-138"/>
      <point x="619" y="-170"/>
      <point x="494" y="-170" type="curve" smooth="yes"/>
      <point x="318" y="-170"/>
      <point x="193" y="-71"/>
      <point x="193" y="133" type="curve" smooth="yes"/>
      <point x="193" y="192"/>
      <point x="213" y="269"/>
      <point x="255" y="366" type="curve"/>
      <point x="199" y="393" type="line"/>
      <point x="130" y="259"/>
      <point x="88" y="130"/>
      <point x="88" y="9" type="curve" smooth="yes"/>
      <point x="88" y="-233"/>
      <point x="231" y="-377"/>
      <point x="461" y="-377" type="curve" smooth="yes"/>
      <point x="601" y="-377"/>
      <point x="782" y="-318"/>
      <point x="923" y="-194" type="curve"/>
      <point x="955" y="-136"/>
      <point x="975" y="-86"/>
      <point x="975" y="-49" type="curve" smooth="yes"/>
      <point x="975" y="-32"/>
      <point x="974" y="-16"/>
      <point x="971" y="0" type="curve"/>
      <point x="1025" y="0" type="line"/>
      <point x="1025" y="200" type="line"/>
    </contour>
    <contour>
      <point x="471.04" y="421.347" type="move" name="hamzaAbove"/>
    </contour>
    <contour>
      <point x="570.027" y="417.933" type="move" name="markAbove"/>
    </contour>
    <contour>
      <point x="522.24" y="469.133" type="move" name="smallVAbove"/>
    </contour>
    <contour>
      <point x="433.493" y="-479.773" type="move" name="markBelow"/>
    </contour>
    <contour>
      <point x="510.293" y="-554.184" type="move" name="dotBelow"/>
    </contour>
    <contour>
      <point x="556.5" y="452.067" type="move" name="dotAbove"/>
    </contour>
  </outline>
</glyph>
<glyph name="di4Dot.above" format="1">
  <advance width="451"/>
  <outline>
    <contour>
      <point x="-3.66049" y="23.4244" type="line"/>
      <point x="36.3395" y="-15.5756"/>
      <point x="75.3395" y="-54.5756"/>
      <point x="113.34" y="-95.5756" type="curve"/>
      <point x="152.34" y="-65.5756"/>
      <point x="185.34" y="-31.5756"/>
      <point x="211.34" y="6.4244" type="curve"/>
      <point x="181.34" y="47.4244"/>
      <point x="143.34" y="89.4244"/>
      <point x="97.3395" y="130.424" type="curve"/>
    </contour>
    <contour>
      <point x="-217.66" y="14.4244" type="line"/>
      <point x="-177.66" y="-24.5756"/>
      <point x="-138.66" y="-63.5756"/>
      <point x="-100.66" y="-104.576" type="curve"/>
      <point x="-61.6605" y="-74.5756"/>
      <point x="-28.6605" y="-40.5756"/>
      <point x="-2.6605" y="-2.5756" type="curve"/>
      <point x="-32.6605" y="38.4244"/>
      <point x="-70.6605" y="80.4244"/>
      <point x="-116.66" y="121.424" type="curve"/>
    </contour>
    <contour>
      <point x="-38.6605" y="251.424" type="line"/>
      <point x="1.3395" y="212.424"/>
      <point x="40.3395" y="173.424"/>
      <point x="78.3395" y="132.424" type="curve"/>
      <point x="117.34" y="162.424"/>
      <point x="150.34" y="196.424"/>
      <point x="176.34" y="234.424" type="curve"/>
      <point x="146.34" y="275.424"/>
      <point x="108.34" y="317.424"/>
      <point x="62.3395" y="358.424" type="curve"/>
    </contour>
    <contour>
      <point x="-252.66" y="242.424" type="line"/>
      <point x="-212.66" y="203.424"/>
      <point x="-173.66" y="164.424"/>
      <point x="-135.66" y="123.424" type="curve"/>
      <point x="-96.6605" y="153.424"/>
      <point x="-63.6605" y="187.424"/>
      <point x="-37.6605" y="225.424" type="curve"/>
      <point x="-67.6605" y="266.424"/>
      <point x="-105.66" y="308.424"/>
      <point x="-151.66" y="349.424" type="curve"/>
    </contour>
  </outline>
</glyph>
<glyph name="diDamma" format="1">
  <advance width="0"/>
  <outline>
    <contour>
      <point x="182.053" y="1248.78" type="curve"/>
      <point x="171.053" y="1255.78"/>
      <point x="159.053" y="1260.78"/>
      <point x="148.053" y="1262.78" type="curve"/>
      <point x="152.053" y="1286.78"/>
      <point x="154.053" y="1305.78"/>
      <point x="154.053" y="1327.78" type="curve" smooth="yes"/>
      <point x="154.053" y="1400.78"/>
      <point x="120.053" y="1459.78"/>
      <point x="63.0523" y="1459.78" type="curve" smooth="yes"/>
      <point x="23.0523" y="1459.78"/>
      <point x="-12.9474" y="1441.78"/>
      <point x="-42.9474" y="1416.78" type="curve"/>
      <point x="-81.9474" y="1378.78"/>
      <point x="-97.9473" y="1335.78"/>
      <point x="-97.9473" y="1303.78" type="curve" smooth="yes"/>
      <point x="-97.9473" y="1249.78"/>
      <point x="-62.9474" y="1212.78"/>
      <point x="12.0523" y="1195.78" type="curve"/>
      <point x="-42.9474" y="1164.78"/>
      <point x="-125.947" y="1131.78"/>
      <point x="-215.947" y="1097.78" type="curve"/>
      <point x="-211.947" y="1087.78" type="line"/>
      <point x="-175.947" y="1072.78"/>
      <point x="-138.947" y="1061.78"/>
      <point x="-102.947" y="1054.78" type="curve"/>
      <point x="-33.9474" y="1083.78"/>
      <point x="34.0523" y="1115.78"/>
      <point x="87.0523" y="1165.78" type="curve"/>
      <point x="97.0533" y="1165.78"/>
      <point x="108.053" y="1160.78"/>
      <point x="116.053" y="1155.78" type="curve"/>
      <point x="139.053" y="1180.78"/>
      <point x="161.053" y="1210.78"/>
    </contour>
    <contour>
      <point x="94.0533" y="1278.78" type="curve"/>
      <point x="29.0523" y="1292.78"/>
      <point x="-29.9474" y="1311.78"/>
      <point x="-29.9474" y="1354.78" type="curve" smooth="yes"/>
      <point x="-29.9474" y="1366.78"/>
      <point x="-17.9474" y="1383.78"/>
      <point x="20.0523" y="1383.78" type="curve" smooth="yes"/>
      <point x="64.0523" y="1383.78"/>
      <point x="92.0533" y="1333.78"/>
    </contour>
    <contour>
      <point x="-1.70667" y="1063.43" type="move" name="_markAbove"/>
    </contour>
    <contour>
      <point x="-1.70667" y="1036.43" type="move" name="_markAboveDot"/>
    </contour>
    <contour>
      <point x="-1.70667" y="1036.43" type="move" name="_markAboveMark"/>
    </contour>
  </outline>
</glyph>
<glyph name="diFatha" format="1">
  <advance width="0"/>
  <outline>
    <contour>
      <point x="211.813" y="1264.4" type="line"/>
      <point x="207.813" y="1268.4" type="line"/>
      <point x="92.8137" y="1224.4"/>
      <point x="-30.1863" y="1184.4"/>
      <point x="-154.187" y="1145.4" type="curve"/>
      <point x="-177.187" y="1052.4" type="line"/>
      <point x="-172.187" y="1046.4" type="line"/>
      <point x="-55.1863" y="1084.4"/>
      <point x="61.8137" y="1124.4"/>
      <point x="169.813" y="1170.4" type="curve"/>
    </contour>
    <contour>
      <point x="0.853333" y="1036.43" type="move" name="_markAbove"/>
    </contour>
    <contour>
      <point x="1.13687e-13" y="1036.43" type="move" name="_markAboveDot"/>
    </contour>
    <contour>
      <point x="-1.13687e-13" y="1036.43" type="move" name="_markAboveMark"/>
    </contour>
  </outline>
</glyph>
<glyph name="diFathatan" format="1">
  <advance width="0"/>
  <outline>
    <contour>
      <point x="218.3" y="1264.32" type="line"/>
      <point x="214.3" y="1268.32" type="line"/>
      <point x="99.3" y="1224.32"/>
      <point x="-23.6999" y="1184.32"/>
      <point x="-147.7" y="1145.32" type="curve"/>
      <point x="-170.7" y="1052.32" type="line"/>
      <point x="-165.7" y="1046.32" type="line"/>
      <point x="-48.6999" y="1084.32"/>
      <point x="68.3001" y="1124.32"/>
      <point x="176.3" y="1170.32" type="curve"/>
    </contour>
    <contour>
      <point x="218.3" y="1431.32" type="line"/>
      <point x="214.3" y="1435.32" type="line"/>
      <point x="99.3" y="1391.32"/>
      <point x="-23.6999" y="1351.32"/>
      <point x="-147.7" y="1312.32" type="curve"/>
      <point x="-170.7" y="1219.32" type="line"/>
      <point x="-165.7" y="1213.32" type="line"/>
      <point x="-48.6999" y="1251.32"/>
      <point x="68.3001" y="1291.32"/>
      <point x="176.3" y="1337.32" type="curve"/>
    </contour>
    <contour>
      <point x="0.853333" y="1036.43" type="move" name="_markAbove"/>
    </contour>
    <contour>
      <point x="1.13687e-13" y="1036.43" type="move" name="_markAboveDot"/>
    </contour>
    <contour>
      <point x="1.70667" y="1036.43" type="move" name="_markAboveMark"/>
    </contour>
  </outline>
</glyph>
<glyph name="diHamza.above" format="1">
  <advance width="0"/>
  <outline>
    <contour>
      <point x="177.253" y="1254.43" type="line"/>
      <point x="196.253" y="1282.43"/>
      <point x="206.253" y="1306.43"/>
      <point x="206.253" y="1328.43" type="curve" smooth="yes"/>
      <point x="206.253" y="1362.43"/>
      <point x="178.253" y="1384.43"/>
      <point x="135.253" y="1384.43" type="curve" smooth="yes"/>
      <point x="92.253" y="1384.43"/>
      <point x="48.8671" y="1364.87"/>
      <point x="11.2531" y="1331.43" type="curve" smooth="yes"/>
      <point x="-32.1376" y="1292.87"/>
      <point x="-52.7469" y="1249.43"/>
      <point x="-52.7469" y="1218.43" type="curve" smooth="yes"/>
      <point x="-52.7469" y="1180.43"/>
      <point x="-30.7469" y="1155.43"/>
      <point x="8.2531" y="1138.43" type="curve"/>
      <point x="-5.7469" y="1114.43"/>
      <point x="-18.7469" y="1089.43"/>
      <point x="-30.7469" y="1063.43" type="curve"/>
      <point x="-18.7469" y="1051.43" type="line"/>
      <point x="36.2531" y="1086.43"/>
      <point x="122.253" y="1109.43"/>
      <point x="231.253" y="1123.43" type="curve"/>
      <point x="247.253" y="1150.43"/>
      <point x="261.253" y="1177.43"/>
      <point x="272.253" y="1204.43" type="curve"/>
      <point x="268.253" y="1213.43" type="line"/>
      <point x="233.253" y="1211.43"/>
      <point x="204.253" y="1210.43"/>
      <point x="167.253" y="1210.43" type="curve" smooth="yes"/>
      <point x="82.2531" y="1210.43"/>
      <point x="36.2531" y="1237.43"/>
      <point x="36.2531" y="1263.43" type="curve" smooth="yes"/>
      <point x="36.2531" y="1278.43"/>
      <point x="63.2531" y="1297.43"/>
      <point x="103.253" y="1298.43" type="curve"/>
      <point x="117.253" y="1298.43"/>
      <point x="129.253" y="1294.43"/>
      <point x="137.253" y="1284.43" type="curve"/>
      <point x="164.253" y="1254.43" type="line"/>
    </contour>
    <contour>
      <point x="1.7067" y="1036.43" type="move" name="_hamzaAbove"/>
    </contour>
    <contour>
      <point x="89.6" y="1368" type="move" name="markAboveMark"/>
    </contour>
    <contour>
      <point x="136.533" y="1026.87" type="move" name="markBelowMark"/>
    </contour>
  </outline>
</glyph>
<glyph name="diKasratan" format="1">
  <advance width="0"/>
  <outline>
    <contour>
      <point x="200.72" y="-521.624" type="line"/>
      <point x="196.72" y="-517.624" type="line"/>
      <point x="81.7203" y="-561.624"/>
      <point x="-41.2797" y="-601.624"/>
      <point x="-165.28" y="-640.624" type="curve"/>
      <point x="-188.28" y="-733.624" type="line"/>
      <point x="-183.28" y="-739.624" type="line"/>
      <point x="-66.2797" y="-701.624"/>
      <point x="50.7203" y="-661.624"/>
      <point x="158.72" y="-615.624" type="curve"/>
    </contour>
    <contour>
      <point x="200.72" y="-354.624" type="line"/>
      <point x="196.72" y="-350.624" type="line"/>
      <point x="81.7203" y="-394.624"/>
      <point x="-41.2797" y="-434.624"/>
      <point x="-165.28" y="-473.624" type="curve"/>
      <point x="-188.28" y="-566.624" type="line"/>
      <point x="-183.28" y="-572.624" type="line"/>
      <point x="-66.2797" y="-534.624"/>
      <point x="50.7203" y="-494.624"/>
      <point x="158.72" y="-448.624" type="curve"/>
    </contour>
    <contour>
      <point x="0.853333" y="-352" type="move" name="_markBelow"/>
    </contour>
    <contour>
      <point x="1.13687e-13" y="-352" type="move" name="_markBelowDot"/>
    </contour>
    <contour>
      <point x="2.56" y="-352" type="move" name="_markBelowMark"/>
    </contour>
    <contour>
      <point x="6.22" y="-787.286" type="move" name="_markAboveAlt"/>
    </contour>
  </outline>
</glyph>
<glyph name="diLonga.below" format="1">
  <advance width="0"/>
  <outline>
    <contour>
      <point x="10.0533" y="-371.438" type="line"/>
      <point x="-62.9467" y="-472.437" type="line"/>
      <point x="-41.9467" y="-559.437"/>
      <point x="-28.9467" y="-636.437"/>
      <point x="-28.9467" y="-715.437" type="curve"/>
      <point x="-11.9467" y="-721.437" type="line"/>
      <point x="8.05331" y="-695.437"/>
      <point x="26.0533" y="-668.437"/>
      <point x="41.0533" y="-640.437" type="curve"/>
      <point x="45.0533" y="-631.437"/>
      <point x="46.0533" y="-621.437"/>
      <point x="46.0533" y="-610.437" type="curve" smooth="yes"/>
      <point x="46.0533" y="-544.437"/>
      <point x="40.0533" y="-472.437"/>
      <point x="24.0533" y="-377.438" type="curve"/>
    </contour>
    <contour>
      <point x="2.56" y="-352" type="move" name="_markBelow"/>
    </contour>
    <contour>
      <point x="0.853333" y="-352" type="move" name="_markBelowMark"/>
    </contour>
  </outline>
</glyph>
<glyph name="diRing.below" format="1">
  <advance width="0"/>
  <outline>
    <contour>
      <point x="-0" y="316.216" type="curve" smooth="yes"/>
      <point x="70" y="316.216"/>
      <point x="142" y="367.216"/>
      <point x="142" y="451.216" type="curve" smooth="yes"/>
      <point x="142" y="531.216"/>
      <point x="70" y="582.216"/>
      <point x="2" y="582.216" type="curve" smooth="yes"/>
      <point x="-71" y="582.216"/>
      <point x="-140" y="531.216"/>
      <point x="-140" y="451.216" type="curve" smooth="yes"/>
      <point x="-140" y="367.216"/>
      <point x="-71" y="316.216"/>
    </contour>
    <contour>
      <point x="3" y="374.216" type="curve" smooth="yes"/>
      <point x="-35" y="374.216"/>
      <point x="-65" y="403.216"/>
      <point x="-65" y="450.216" type="curve" smooth="yes"/>
      <point x="-65" y="495.216"/>
      <point x="-35" y="524.216"/>
      <point x="2" y="524.216" type="curve" smooth="yes"/>
      <point x="43" y="524.216"/>
      <point x="67" y="493.216"/>
      <point x="67" y="451.216" type="curve" smooth="yes"/>
      <point x="67" y="403.216"/>
      <point x="43" y="374.216"/>
    </contour>
    <contour>
      <point x="2.16683" y="442.698" type="move" name="_ringBelow"/>
    </contour>
  </outline>
</glyph>
<glyph name="diSmallV.above" format="1">
  <advance width="0"/>
  <outline>
    <contour>
      <point x="131.094" y="1357.43" type="line"/>
      <point x="51.0933" y="1276.43"/>
      <point x="15.0933" y="1220.43"/>
      <point x="5.09333" y="1183.43" type="curve"/>
      <point x="2.09333" y="1183.43" type="line"/>
      <point x="-8.90667" y="1208.43"/>
      <point x="-53.9067" y="1266.43"/>
      <point x="-138.906" y="1352.43" type="curve"/>
      <point x="-152.906" y="1352.43" type="line"/>
      <point x="-187.906" y="1252.43" type="line"/>
      <point x="-99.9067" y="1174.43"/>
      <point x="-33.9067" y="1098.43"/>
      <point x="-16.9067" y="1052.43" type="curve"/>
      <point x="11.0933" y="1063.43" type="line"/>
      <point x="29.0933" y="1109.43"/>
      <point x="75.0933" y="1185.43"/>
      <point x="163.094" y="1273.43" type="curve"/>
      <point x="156.094" y="1305.43"/>
      <point x="148.094" y="1329.43"/>
      <point x="137.094" y="1357.43" type="curve"/>
    </contour>
    <contour>
      <point x="-0.853333" y="1036.43" type="move" name="_smallVAbove"/>
    </contour>
  </outline>
</glyph>
<glyph name="diSmallV.below" format="1">
  <advance width="0"/>
  <outline>
    <contour>
      <point x="145.6" y="-365.997" type="line"/>
      <point x="65.6" y="-446.997"/>
      <point x="29.6" y="-502.997"/>
      <point x="19.6" y="-539.997" type="curve"/>
      <point x="16.6" y="-539.997" type="line"/>
      <point x="5.6" y="-514.997"/>
      <point x="-39.4" y="-456.997"/>
      <point x="-124.4" y="-370.997" type="curve"/>
      <point x="-138.4" y="-370.997" type="line"/>
      <point x="-173.4" y="-470.997" type="line"/>
      <point x="-85.4" y="-548.997"/>
      <point x="-19.4" y="-624.997"/>
      <point x="-2.39998" y="-670.997" type="curve"/>
      <point x="25.6" y="-659.997" type="line"/>
      <point x="43.6" y="-613.997"/>
      <point x="89.6" y="-537.997"/>
      <point x="177.6" y="-449.997" type="curve"/>
      <point x="170.6" y="-417.997"/>
      <point x="162.6" y="-393.997"/>
      <point x="151.6" y="-365.997" type="curve"/>
    </contour>
    <contour>
      <point x="0" y="-369.864" type="move" name="_smallVBelow"/>
    </contour>
  </outline>
</glyph>
<glyph name="diTah.above" format="1">
  <advance width="0"/>
  <outline>
    <contour>
      <point x="-48.9733" y="1055.43" type="line"/>
      <point x="9.02667" y="1055.43" type="line" smooth="yes"/>
      <point x="137.027" y="1055.43"/>
      <point x="220.263" y="1087.35"/>
      <point x="250.027" y="1171.43" type="curve" smooth="yes"/>
      <point x="260.264" y="1200.35"/>
      <point x="265.027" y="1226.43"/>
      <point x="265.027" y="1250.43" type="curve" smooth="yes"/>
      <point x="265.027" y="1309.43"/>
      <point x="220.027" y="1362.43"/>
      <point x="166.027" y="1362.43" type="curve" smooth="yes"/>
      <point x="110.027" y="1362.43"/>
      <point x="61.0267" y="1325.43"/>
      <point x="16.0267" y="1262.43" type="curve"/>
      <point x="13.0267" y="1265.43" type="line"/>
      <point x="19.0267" y="1279.43"/>
      <point x="22.0267" y="1313.43"/>
      <point x="22.0267" y="1367.43" type="curve"/>
      <point x="67.0267" y="1409.43" type="line"/>
      <point x="41.0267" y="1452.43"/>
      <point x="20.0267" y="1493.43"/>
      <point x="18.0267" y="1523.43" type="curve"/>
      <point x="11.0267" y="1526.43" type="line"/>
      <point x="-34.9733" y="1493.43"/>
      <point x="-56.9733" y="1465.43"/>
      <point x="-56.9733" y="1435.43" type="curve" smooth="yes"/>
      <point x="-56.9733" y="1413.43"/>
      <point x="-51.1937" y="1391.4"/>
      <point x="-47.9733" y="1364.43" type="curve" smooth="yes"/>
      <point x="-43.1935" y="1324.4"/>
      <point x="-41.9733" y="1283.43"/>
      <point x="-41.9733" y="1243.43" type="curve" smooth="yes"/>
      <point x="-41.9733" y="1210.43"/>
      <point x="-43.9733" y="1187.43"/>
      <point x="-52.9733" y="1165.43" type="curve"/>
      <point x="-91.9733" y="1165.43"/>
      <point x="-122.973" y="1167.43"/>
      <point x="-153.973" y="1170.43" type="curve"/>
      <point x="-163.973" y="1150.43" type="line"/>
    </contour>
    <contour>
      <point x="-1.97333" y="1163.43" type="curve"/>
      <point x="40.0267" y="1219.43"/>
      <point x="83.0267" y="1259.43"/>
      <point x="133.027" y="1259.43" type="curve" smooth="yes"/>
      <point x="172.027" y="1259.43"/>
      <point x="195.027" y="1241.43"/>
      <point x="208.027" y="1209.43" type="curve"/>
      <point x="164.027" y="1178.43"/>
      <point x="93.0267" y="1165.43"/>
    </contour>
    <contour>
      <point x="0.853333" y="1036.6" type="move" name="_hamzaAbove"/>
    </contour>
  </outline>
</glyph>
<glyph name="dig0" format="1">
  <advance width="747"/>
  <outline>
    <contour>
      <point x="192" y="375" type="line"/>
      <point x="293" y="315"/>
      <point x="373" y="259"/>
      <point x="430" y="207" type="curve"/>
      <point x="498" y="288"/>
      <point x="546" y="376"/>
      <point x="546" y="410" type="curve" smooth="yes"/>
      <point x="546" y="447"/>
      <point x="452" y="521"/>
      <point x="320" y="593" type="curve"/>
    </contour>
  </outline>
</glyph>
<glyph name="dig4Urdu" format="1">
  <advance width="747"/>
  <outline>
    <contour>
      <point x="478" y="710" type="line"/>
      <point x="420" y="848"/>
      <point x="346" y="914"/>
      <point x="257" y="914" type="curve" smooth="yes"/>
      <point x="195" y="914"/>
      <point x="153" y="877"/>
      <point x="120" y="818" type="curve"/>
      <point x="79" y="732"/>
      <point x="60" y="665"/>
      <point x="60" y="606" type="curve" smooth="yes"/>
      <point x="60" y="430"/>
      <point x="289" y="113"/>
      <point x="319" y="-32" type="curve"/>
      <point x="354" y="-38" type="line"/>
      <point x="373" y="39"/>
      <point x="384" y="107"/>
      <point x="389" y="174" type="curve"/>
      <point x="291" y="363"/>
      <point x="207" y="542"/>
      <point x="161" y="688" type="curve"/>
      <point x="177" y="702"/>
      <point x="205" y="709"/>
      <point x="231" y="709" type="curve" smooth="yes"/>
      <point x="314" y="709"/>
      <point x="404" y="592"/>
      <point x="420" y="468" type="curve"/>
      <point x="474" y="489" type="line"/>
      <point x="495" y="545"/>
      <point x="516" y="585"/>
      <point x="536" y="612" type="curve" smooth="yes"/>
      <point x="565" y="649"/>
      <point x="609" y="689"/>
      <point x="679" y="734" type="curve"/>
      <point x="706" y="925" type="line"/>
      <point x="693" y="933" type="line"/>
      <point x="587" y="860"/>
      <point x="504" y="790"/>
      <point x="484" y="710" type="curve"/>
    </contour>
  </outline>
</glyph>
<glyph name="dig7Urdu" format="1">
  <advance width="747"/>
  <outline>
    <contour>
      <point x="667" y="216" type="line"/>
      <point x="588" y="204"/>
      <point x="493" y="199"/>
      <point x="384" y="199" type="curve" smooth="yes"/>
      <point x="279" y="199"/>
      <point x="188" y="208"/>
      <point x="188" y="235" type="curve" smooth="yes"/>
      <point x="188" y="270"/>
      <point x="333" y="466"/>
      <point x="565" y="719" type="curve"/>
      <point x="574" y="792"/>
      <point x="580" y="857"/>
      <point x="582" y="925" type="curve"/>
      <point x="552" y="925" type="line"/>
      <point x="323" y="667"/>
      <point x="168" y="470"/>
      <point x="115" y="361" type="curve" smooth="yes"/>
      <point x="86" y="300"/>
      <point x="74" y="239"/>
      <point x="74" y="176" type="curve" smooth="yes"/>
      <point x="74" y="122"/>
      <point x="82" y="66"/>
      <point x="94" y="9" type="curve"/>
      <point x="162" y="2"/>
      <point x="242" y="-1"/>
      <point x="321" y="-1" type="curve" smooth="yes"/>
      <point x="412" y="-1"/>
      <point x="503" y="3"/>
      <point x="578" y="10" type="curve"/>
      <point x="615" y="75"/>
      <point x="649" y="140"/>
      <point x="678" y="203" type="curve"/>
    </contour>
  </outline>
</glyph>
<glyph name="legLAShort.fina" format="1">
  <advance width="898"/>
  <outline>
    <contour>
      <point x="375" y="777" type="line"/>
      <point x="272" y="834"/>
      <point x="193" y="887"/>
      <point x="149" y="933" type="curve"/>
      <point x="135" y="933" type="line"/>
      <point x="115" y="883"/>
      <point x="103" y="840"/>
      <point x="103" y="806" type="curve" smooth="yes"/>
      <point x="103" y="747"/>
      <point x="174" y="678"/>
      <point x="240" y="591" type="curve" smooth="yes"/>
      <point x="368" y="422"/>
      <point x="464" y="283"/>
      <point x="490" y="195" type="curve"/>
      <point x="395" y="128"/>
      <point x="272" y="70"/>
      <point x="126" y="19" type="curve"/>
      <point x="126" y="0" type="line"/>
      <point x="177" y="-17"/>
      <point x="239" y="-27"/>
      <point x="317" y="-27" type="curve" smooth="yes"/>
      <point x="444" y="-27"/>
      <point x="608" y="28"/>
      <point x="656" y="209" type="curve"/>
      <point x="660" y="209" type="line"/>
      <point x="681" y="68"/>
      <point x="754" y="0"/>
      <point x="884" y="0" type="curve" smooth="yes"/>
      <point x="898" y="0" type="line"/>
      <point x="898" y="200" type="line"/>
      <point x="884" y="200" type="line" smooth="yes"/>
      <point x="786" y="200"/>
      <point x="741" y="276"/>
      <point x="741" y="417" type="curve" smooth="yes"/>
      <point x="741" y="668"/>
      <point x="741" y="870"/>
      <point x="730" y="1025" type="curve"/>
      <point x="718" y="1031" type="line"/>
      <point x="686" y="1005"/>
      <point x="650" y="972"/>
      <point x="610" y="933" type="curve"/>
      <point x="623" y="732"/>
      <point x="631" y="575"/>
      <point x="631" y="442" type="curve" smooth="yes"/>
      <point x="631" y="338"/>
      <point x="596" y="273"/>
      <point x="549" y="225" type="curve"/>
      <point x="546" y="226" type="line"/>
      <point x="546" y="398"/>
      <point x="453" y="509"/>
      <point x="331" y="698" type="curve"/>
    </contour>
    <contour>
      <point x="289.28" y="-52" type="move" name="markBelow"/>
    </contour>
    <contour>
      <point x="651.093" y="1107.26" type="move" name="markAbove_1"/>
    </contour>
    <contour>
      <point x="155.422" y="984.885" type="move" name="hamzaAbove"/>
    </contour>
    <contour>
      <point x="253.004" y="-84.3702" type="move" name="hamzaBelow"/>
    </contour>
    <contour>
      <point x="542" y="1036.43" type="move" name="smallVAbove"/>
    </contour>
    <contour>
      <point x="289.28" y="1036.43" type="move" name="markAbove_2"/>
    </contour>
  </outline>
</glyph>
<glyph name="legLA.isol" format="1">
  <advance width="850"/>
  <outline>
    <contour>
      <point x="343" y="737" type="line"/>
      <point x="241" y="820"/>
      <point x="166" y="889"/>
      <point x="136" y="937" type="curve"/>
      <point x="123" y="938" type="line"/>
      <point x="91" y="884"/>
      <point x="72" y="834"/>
      <point x="72" y="796" type="curve" smooth="yes"/>
      <point x="72" y="746"/>
      <point x="110" y="686"/>
      <point x="169" y="606" type="curve" smooth="yes"/>
      <point x="350" y="362"/>
      <point x="467" y="193"/>
      <point x="475" y="140" type="curve"/>
      <point x="392" y="102"/>
      <point x="257" y="61"/>
      <point x="51" y="15" type="curve"/>
      <point x="51" y="-10" type="line"/>
      <point x="160" y="-53"/>
      <point x="259" y="-71"/>
      <point x="349" y="-71" type="curve" smooth="yes"/>
      <point x="502" y="-71"/>
      <point x="579" y="-11"/>
      <point x="632" y="83" type="curve" smooth="yes"/>
      <point x="694" y="193"/>
      <point x="719" y="335"/>
      <point x="719" y="499" type="curve" smooth="yes"/>
      <point x="719" y="689" type="line"/>
      <point x="810" y="756" type="line"/>
      <point x="745" y="864"/>
      <point x="699" y="954"/>
      <point x="699" y="998" type="curve" smooth="yes"/>
      <point x="699" y="1009"/>
      <point x="701" y="1016"/>
      <point x="703" y="1021" type="curve"/>
      <point x="686" y="1032" type="line"/>
      <point x="606" y="971"/>
      <point x="585" y="925"/>
      <point x="585" y="870" type="curve" smooth="yes"/>
      <point x="585" y="783"/>
      <point x="612" y="724"/>
      <point x="612" y="341" type="curve" smooth="yes"/>
      <point x="612" y="228"/>
      <point x="577" y="191"/>
      <point x="529" y="163" type="curve"/>
      <point x="529" y="343"/>
      <point x="446" y="436"/>
      <point x="295" y="663" type="curve"/>
    </contour>
    <contour>
      <point x="261.973" y="994.616" type="move" name="markAbove_1"/>
    </contour>
    <contour>
      <point x="295" y="-123" type="move" name="markBelow"/>
    </contour>
    <contour>
      <point x="258.56" y="1001.44" type="move" name="hamzaAbove"/>
    </contour>
    <contour>
      <point x="255.147" y="-111.304" type="move" name="hamzaBelow"/>
    </contour>
    <contour>
      <point x="531.627" y="1063.43" type="move" name="smallVAbove"/>
    </contour>
    <contour>
      <point x="261.973" y="1042.4" type="move" name="markAbove_2"/>
    </contour>
  </outline>
</glyph>
<glyph name="maBraceright" format="1">
  <advance width="536"/>
  <outline>
    <contour>
      <point x="450" y="421" type="line"/>
      <point x="313" y="430"/>
      <point x="312" y="501"/>
      <point x="312" y="559" type="curve" smooth="yes"/>
      <point x="312" y="644"/>
      <point x="320" y="741"/>
      <point x="320" y="830" type="curve" smooth="yes"/>
      <point x="320" y="1012"/>
      <point x="184" y="1034"/>
      <point x="70" y="1034" type="curve"/>
      <point x="70" y="979" type="line"/>
      <point x="182" y="966"/>
      <point x="207" y="902"/>
      <point x="207" y="840" type="curve" smooth="yes"/>
      <point x="207" y="755"/>
      <point x="186" y="666"/>
      <point x="186" y="567" type="curve" smooth="yes"/>
      <point x="186" y="487"/>
      <point x="221" y="417"/>
      <point x="322" y="398" type="curve"/>
      <point x="322" y="392" type="line"/>
      <point x="221" y="373"/>
      <point x="186" y="303"/>
      <point x="186" y="216" type="curve" smooth="yes"/>
      <point x="186" y="115"/>
      <point x="207" y="32"/>
      <point x="207" y="-42" type="curve" smooth="yes"/>
      <point x="207" y="-112"/>
      <point x="181" y="-176"/>
      <point x="70" y="-189" type="curve"/>
      <point x="70" y="-245" type="line"/>
      <point x="185" y="-245"/>
      <point x="320" y="-218"/>
      <point x="320" y="-47" type="curve" smooth="yes"/>
      <point x="320" y="45"/>
      <point x="312" y="146"/>
      <point x="312" y="230" type="curve" smooth="yes"/>
      <point x="312" y="288"/>
      <point x="316" y="358"/>
      <point x="450" y="369" type="curve"/>
    </contour>
  </outline>
</glyph>
<glyph name="maBracketleft" format="1">
  <advance width="524"/>
  <outline>
    <contour>
      <point x="453" y="-236" type="line"/>
      <point x="453" y="-182" type="line"/>
      <point x="297" y="-169"/>
      <point x="294" y="-157"/>
      <point x="294" y="-44" type="curve" smooth="yes"/>
      <point x="294" y="833" type="line" smooth="yes"/>
      <point x="294" y="947"/>
      <point x="300" y="958"/>
      <point x="453" y="972" type="curve"/>
      <point x="453" y="1025" type="line"/>
      <point x="179" y="1025" type="line"/>
      <point x="179" y="-236" type="line"/>
    </contour>
  </outline>
</glyph>
<glyph name="maBracketright" format="1">
  <advance width="524"/>
  <outline>
    <contour>
      <point x="347" y="-236" type="line"/>
      <point x="347" y="1025" type="line"/>
      <point x="73" y="1025" type="line"/>
      <point x="73" y="973" type="line"/>
      <point x="224" y="960"/>
      <point x="232" y="948"/>
      <point x="232" y="835" type="curve" smooth="yes"/>
      <point x="232" y="-44" type="line" smooth="yes"/>
      <point x="232" y="-157"/>
      <point x="224" y="-169"/>
      <point x="73" y="-182" type="curve"/>
      <point x="73" y="-236" type="line"/>
    </contour>
  </outline>
</glyph>
<glyph name="maComma" format="1">
  <advance width="374"/>
  <outline>
    <contour>
      <point x="227" y="-19" type="line"/>
      <point x="275" y="-19"/>
      <point x="320" y="11"/>
      <point x="320" y="56" type="curve" smooth="yes"/>
      <point x="320" y="86"/>
      <point x="306" y="107"/>
      <point x="298" y="108" type="curve"/>
      <point x="227" y="123"/>
      <point x="189" y="166"/>
      <point x="189" y="217" type="curve" smooth="yes"/>
      <point x="189" y="279"/>
      <point x="231" y="322"/>
      <point x="323" y="359" type="curve"/>
      <point x="306" y="410" type="line"/>
      <point x="183" y="381"/>
      <point x="54" y="303"/>
      <point x="54" y="166" type="curve" smooth="yes"/>
      <point x="54" y="54"/>
      <point x="151" y="-19"/>
      <point x="225" y="-19" type="curve"/>
    </contour>
  </outline>
</glyph>
<glyph name="maParenleft" format="1">
  <advance width="524"/>
  <outline>
    <contour>
      <point x="469" y="-213" type="line"/>
      <point x="342" y="-95"/>
      <point x="256" y="144"/>
      <point x="256" y="395" type="curve" smooth="yes"/>
      <point x="256" y="645"/>
      <point x="332" y="865"/>
      <point x="469" y="1002" type="curve"/>
      <point x="430" y="1041" type="line"/>
      <point x="214" y="889"/>
      <point x="118" y="661"/>
      <point x="118" y="396" type="curve"/>
      <point x="118" y="395" type="line"/>
      <point x="118" y="128"/>
      <point x="214" y="-99"/>
      <point x="430" y="-252" type="curve"/>
    </contour>
  </outline>
</glyph>
<glyph name="maPercent" format="1">
  <advance width="747"/>
  <outline>
    <contour>
      <point x="625" y="925" type="line"/>
      <point x="611" y="925" type="line"/>
      <point x="438" y="704"/>
      <point x="245" y="404"/>
      <point x="86" y="111" type="curve"/>
      <point x="151" y="-33" type="line"/>
      <point x="165" y="-33" type="line"/>
      <point x="344" y="293"/>
      <point x="527" y="587"/>
      <point x="690" y="794" type="curve"/>
    </contour>
    <contour>
      <point x="34" y="741" type="line"/>
      <point x="103" y="696"/>
      <point x="172" y="649"/>
      <point x="239" y="599" type="curve"/>
      <point x="282" y="659"/>
      <point x="338" y="757"/>
      <point x="338" y="776" type="curve" smooth="yes"/>
      <point x="338" y="799"/>
      <point x="241" y="863"/>
      <point x="140" y="925" type="curve"/>
    </contour>
    <contour>
      <point x="400" y="142" type="line"/>
      <point x="469" y="97"/>
      <point x="538" y="50"/>
      <point x="605" y="0" type="curve"/>
      <point x="648" y="60"/>
      <point x="704" y="158"/>
      <point x="704" y="177" type="curve" smooth="yes"/>
      <point x="704" y="200"/>
      <point x="607" y="264"/>
      <point x="506" y="326" type="curve"/>
    </contour>
  </outline>
</glyph>
<glyph name="wsBase" format="1">
  <advance width="824"/>
  <outline>
    <contour>
      <point x="58" y="343" type="curve" smooth="yes"/>
      <point x="58" y="310"/>
      <point x="72" y="294"/>
      <point x="104" y="294" type="curve" smooth="yes"/>
      <point x="136" y="294"/>
      <point x="155" y="310"/>
      <point x="155" y="343" type="curve" smooth="yes"/>
      <point x="155" y="376"/>
      <point x="136" y="391"/>
      <point x="104" y="391" type="curve" smooth="yes"/>
      <point x="72" y="391"/>
      <point x="58" y="376"/>
    </contour>
    <contour>
      <point x="669" y="343" type="curve" smooth="yes"/>
      <point x="669" y="310"/>
      <point x="685" y="294"/>
      <point x="717" y="294" type="curve" smooth="yes"/>
      <point x="750" y="294"/>
      <point x="766" y="310"/>
      <point x="766" y="343" type="curve" smooth="yes"/>
      <point x="766" y="376"/>
      <point x="750" y="391"/>
      <point x="717" y="391" type="curve" smooth="yes"/>
      <point x="685" y="391"/>
      <point x="669" y="376"/>
    </contour>
    <contour>
      <point x="363" y="649" type="curve" smooth="yes"/>
      <point x="363" y="616"/>
      <point x="378" y="599"/>
      <point x="411" y="599" type="curve" smooth="yes"/>
      <point x="443" y="599"/>
      <point x="461" y="616"/>
      <point x="461" y="649" type="curve" smooth="yes"/>
      <point x="461" y="682"/>
      <point x="443" y="698"/>
      <point x="411" y="698" type="curve" smooth="yes"/>
      <point x="378" y="698"/>
      <point x="363" y="682"/>
    </contour>
    <contour>
      <point x="363" y="36" type="curve" smooth="yes"/>
      <point x="363" y="3"/>
      <point x="378" y="-12"/>
      <point x="411" y="-12" type="curve" smooth="yes"/>
      <point x="443" y="-12"/>
      <point x="461" y="3"/>
      <point x="461" y="36" type="curve" smooth="yes"/>
      <point x="461" y="68"/>
      <point x="443" y="86"/>
      <point x="411" y="86" type="curve" smooth="yes"/>
      <point x="378" y="86"/>
      <point x="363" y="68"/>
    </contour>
    <contour>
      <point x="630" y="497" type="curve" smooth="yes"/>
      <point x="630" y="464"/>
      <point x="646" y="447"/>
      <point x="679" y="447" type="curve" smooth="yes"/>
      <point x="712" y="447"/>
      <point x="727" y="464"/>
      <point x="727" y="497" type="curve" smooth="yes"/>
      <point x="727" y="530"/>
      <point x="712" y="545"/>
      <point x="679" y="545" type="curve" smooth="yes"/>
      <point x="646" y="545"/>
      <point x="630" y="530"/>
    </contour>
    <contour>
      <point x="630" y="189" type="curve" smooth="yes"/>
      <point x="630" y="156"/>
      <point x="646" y="141"/>
      <point x="679" y="141" type="curve" smooth="yes"/>
      <point x="712" y="141"/>
      <point x="727" y="156"/>
      <point x="727" y="189" type="curve" smooth="yes"/>
      <point x="727" y="220"/>
      <point x="712" y="238"/>
      <point x="679" y="238" type="curve" smooth="yes"/>
      <point x="646" y="238"/>
      <point x="630" y="220"/>
    </contour>
    <contour>
      <point x="96" y="497" type="curve" smooth="yes"/>
      <point x="96" y="464"/>
      <point x="110" y="447"/>
      <point x="143" y="447" type="curve" smooth="yes"/>
      <point x="176" y="447"/>
      <point x="194" y="464"/>
      <point x="194" y="497" type="curve" smooth="yes"/>
      <point x="194" y="530"/>
      <point x="176" y="545"/>
      <point x="143" y="545" type="curve" smooth="yes"/>
      <point x="110" y="545"/>
      <point x="96" y="530"/>
    </contour>
    <contour>
      <point x="96" y="189" type="curve" smooth="yes"/>
      <point x="96" y="156"/>
      <point x="110" y="141"/>
      <point x="143" y="141" type="curve" smooth="yes"/>
      <point x="176" y="141"/>
      <point x="194" y="156"/>
      <point x="194" y="189" type="curve" smooth="yes"/>
      <point x="194" y="220"/>
      <point x="176" y="238"/>
      <point x="143" y="238" type="curve" smooth="yes"/>
      <point x="110" y="238"/>
      <point x="96" y="220"/>
    </contour>
    <contour>
      <point x="210" y="611" type="curve" smooth="yes"/>
      <point x="210" y="578"/>
      <point x="224" y="561"/>
      <point x="257" y="561" type="curve" smooth="yes"/>
      <point x="290" y="561"/>
      <point x="308" y="578"/>
      <point x="308" y="611" type="curve" smooth="yes"/>
      <point x="308" y="643"/>
      <point x="290" y="659"/>
      <point x="257" y="659" type="curve" smooth="yes"/>
      <point x="224" y="659"/>
      <point x="210" y="643"/>
    </contour>
    <contour>
      <point x="515" y="611" type="curve" smooth="yes"/>
      <point x="515" y="578"/>
      <point x="534" y="561"/>
      <point x="565" y="561" type="curve" smooth="yes"/>
      <point x="598" y="561"/>
      <point x="613" y="578"/>
      <point x="613" y="611" type="curve" smooth="yes"/>
      <point x="613" y="643"/>
      <point x="598" y="659"/>
      <point x="565" y="659" type="curve" smooth="yes"/>
      <point x="534" y="659"/>
      <point x="515" y="643"/>
    </contour>
    <contour>
      <point x="210" y="74" type="curve" smooth="yes"/>
      <point x="210" y="41"/>
      <point x="224" y="26"/>
      <point x="257" y="26" type="curve" smooth="yes"/>
      <point x="290" y="26"/>
      <point x="308" y="41"/>
      <point x="308" y="74" type="curve" smooth="yes"/>
      <point x="308" y="106"/>
      <point x="290" y="124"/>
      <point x="257" y="124" type="curve" smooth="yes"/>
      <point x="224" y="124"/>
      <point x="210" y="106"/>
    </contour>
    <contour>
      <point x="515" y="74" type="curve" smooth="yes"/>
      <point x="515" y="41"/>
      <point x="534" y="26"/>
      <point x="565" y="26" type="curve" smooth="yes"/>
      <point x="598" y="26"/>
      <point x="613" y="41"/>
      <point x="613" y="74" type="curve" smooth="yes"/>
      <point x="613" y="106"/>
      <point x="598" y="124"/>
      <point x="565" y="124" type="curve" smooth="yes"/>
      <point x="534" y="124"/>
      <point x="515" y="106"/>
    </contour>
  </outline>
</glyph>
<glyph name="wsLre" format="1">
  <advance width="0"/>
  <outline>
    <contour>
      <point x="-57" y="1625" type="line"/>
      <point x="-174" y="1625" type="line"/>
      <point x="-174" y="1578" type="line"/>
      <point x="-57" y="1578" type="line"/>
    </contour>
    <contour>
      <point x="2" y="1578" type="line"/>
      <point x="104" y="1578" type="line"/>
      <point x="20" y="1494" type="line"/>
      <point x="53" y="1459" type="line"/>
      <point x="195" y="1601" type="line"/>
      <point x="53" y="1742" type="line"/>
      <point x="20" y="1707" type="line"/>
      <point x="104" y="1625" type="line"/>
      <point x="2" y="1625" type="line"/>
    </contour>
  </outline>
</glyph>
<glyph name="wsLro" format="1">
  <advance width="0"/>
  <outline>
    <contour>
      <point x="6" y="1625" type="line"/>
      <point x="-211" y="1625" type="line"/>
      <point x="-211" y="1578" type="line"/>
      <point x="8" y="1578" type="line"/>
      <point x="-76" y="1494" type="line"/>
      <point x="-43" y="1459" type="line"/>
      <point x="98" y="1601" type="line"/>
      <point x="-43" y="1742" type="line"/>
      <point x="-76" y="1707" type="line"/>
    </contour>
    <contour>
      <point x="166" y="1601" type="line"/>
      <point x="57" y="1494" type="line"/>
      <point x="90" y="1459" type="line"/>
      <point x="231" y="1601" type="line"/>
      <point x="90" y="1742" type="line"/>
      <point x="57" y="1707" type="line"/>
    </contour>
  </outline>
</glyph>
<glyph name="wsRlo" format="1">
  <advance width="0"/>
  <outline>
    <contour>
      <point x="-6" y="1626" type="line"/>
      <point x="213" y="1626" type="line"/>
      <point x="213" y="1673" type="line"/>
      <point x="-6" y="1673" type="line"/>
      <point x="78" y="1757" type="line"/>
      <point x="43" y="1792" type="line"/>
      <point x="-96" y="1651" type="line"/>
      <point x="43" y="1509" type="line"/>
      <point x="78" y="1544" type="line"/>
    </contour>
    <contour>
      <point x="-164" y="1651" type="line"/>
      <point x="-57" y="1757" type="line"/>
      <point x="-90" y="1792" type="line"/>
      <point x="-231" y="1651" type="line"/>
      <point x="-90" y="1509" type="line"/>
      <point x="-57" y="1544" type="line"/>
    </contour>
  </outline>
</glyph>
<glyph name="wsZwj" format="1">
  <advance width="0"/>
  <outline>
    <contour>
      <point x="205" y="1484" type="line"/>
      <point x="205" y="1625" type="line"/>
      <point x="-203" y="1625" type="line"/>
      <point x="-203" y="1484" type="line"/>
      <point x="-156" y="1484" type="line"/>
      <point x="-156" y="1578" type="line"/>
      <point x="158" y="1578" type="line"/>
      <point x="158" y="1484" type="line"/>
    </contour>
  </outline>
</glyph>
<glyph name="wsZwnj" format="1">
  <advance width="0"/>
  <outline>
    <contour>
      <point x="-141" y="1707" type="line"/>
      <point x="-35" y="1601" type="line"/>
      <point x="-141" y="1494" type="line"/>
      <point x="-109" y="1459" type="line"/>
      <point x="0" y="1566" type="line"/>
      <point x="106" y="1461" type="line"/>
      <point x="139" y="1494" type="line"/>
      <point x="33" y="1601" type="line"/>
      <point x="139" y="1707" type="line"/>
      <point x="106" y="1740" type="line"/>
      <point x="0" y="1633" type="line"/>
      <point x="-109" y="1742" type="line"/>
    </contour>
  </outline>
</glyph>
